<svg width="24" height="18" viewBox="0 0 24 18" fill="none" xmlns="http://www.w3.org/2000/svg">
<path d="M22.6879 7.02L21.2809 5.89425L21.264 5.87963L22.5739 5.6175C22.6588 5.60057 22.7353 5.55468 22.7902 5.48766C22.8451 5.42064 22.8751 5.33664 22.875 5.25V4.125C22.875 4.02554 22.8355 3.93016 22.7652 3.85983C22.6948 3.78951 22.5995 3.75 22.5 3.75H20.625C20.5255 3.75 20.4302 3.78951 20.3598 3.85983C20.2895 3.93016 20.25 4.02554 20.25 4.125V4.782L20.2241 4.74713C20.2003 4.68344 20.1591 4.62771 20.1052 4.58625C19.8941 4.28737 19.7134 3.98812 19.5956 3.72937L18.9619 2.3355C18.558 1.44637 17.4765 0.75 16.5 0.75H7.5C6.5235 0.75 5.442 1.44637 5.03813 2.3355L4.40475 3.729C4.287 3.98775 4.10625 4.28737 3.89512 4.58625C3.84134 4.62781 3.80019 4.68351 3.77625 4.74713L3.75038 4.782V4.125C3.75038 4.02554 3.71087 3.93016 3.64054 3.85983C3.57021 3.78951 3.47483 3.75 3.37538 3.75H1.5C1.40054 3.75 1.30516 3.78951 1.23483 3.85983C1.16451 3.93016 1.125 4.02554 1.125 4.125V5.25C1.125 5.42887 1.251 5.58262 1.4265 5.6175L2.73637 5.87963L2.7195 5.89425L1.31212 7.02C0.576375 7.60875 0 8.808 0 9.75V16.125C0 16.7452 0.50475 17.25 1.125 17.25H4.125C4.74525 17.25 5.25 16.7452 5.25 16.125V15.375H18.75V16.125C18.75 16.7452 19.2547 17.25 19.875 17.25H22.875C23.4953 17.25 24 16.7452 24 16.125V9.75C24 8.808 23.4236 7.60875 22.6879 7.02ZM19.2803 14.625L18.4204 13.7651C18.0555 13.4003 17.391 13.125 16.875 13.125H6.9375C6.4215 13.125 5.757 13.4003 5.39213 13.7651L4.53225 14.625H1.875C1.25475 14.625 0.75 14.1202 0.75 13.5V11.625H1.125V12C1.125 12.8273 1.79775 13.5 2.625 13.5H3.75C3.84946 13.5 3.94484 13.4605 4.01516 13.3902C4.08549 13.3198 4.125 13.2245 4.125 13.125C4.125 13.0255 4.08549 12.9302 4.01516 12.8598C3.94484 12.7895 3.84946 12.75 3.75 12.75H2.625C2.21137 12.75 1.875 12.4136 1.875 12V11.625H2.625C2.93625 11.625 3.42 11.8252 3.64012 12.0454C3.67487 12.0803 3.71618 12.1081 3.76168 12.127C3.80718 12.1459 3.85597 12.1556 3.90525 12.1556C3.95453 12.1556 4.00332 12.1459 4.04882 12.127C4.09432 12.1081 4.13563 12.0803 4.17037 12.0454C4.20523 12.0106 4.23288 11.9693 4.25175 11.9238C4.27061 11.8783 4.28033 11.8295 4.28033 11.7803C4.28033 11.731 4.27061 11.6822 4.25175 11.6367C4.23288 11.5912 4.20523 11.5499 4.17037 11.5151C3.8055 11.1503 3.14138 10.875 2.625 10.875H0.75V9.75C0.75 9.61763 0.771 9.47475 0.800625 9.32887C1.04062 9.57937 1.38975 9.75 1.875 9.75H4.875C4.97445 9.74998 5.06982 9.71046 5.14012 9.64013L5.625 9.15525L6.10987 9.64013C6.14465 9.675 6.18598 9.70266 6.23148 9.72151C6.27697 9.74037 6.32575 9.75005 6.375 9.75H10.7198L11.7349 10.7651C11.7696 10.8001 11.8109 10.8278 11.8564 10.8467C11.9019 10.8656 11.9507 10.8754 12 10.8754C12.0493 10.8754 12.0981 10.8656 12.1436 10.8467C12.1891 10.8278 12.2304 10.8001 12.2651 10.7651L13.2803 9.75H17.625C17.7244 9.75 17.82 9.71063 17.8901 9.64013L18.375 9.15525L18.8599 9.64013C18.8947 9.675 18.936 9.70266 18.9815 9.72151C19.027 9.74037 19.0757 9.75005 19.125 9.75H22.125C22.6103 9.75 22.9594 9.57937 23.1994 9.32887C23.229 9.47475 23.25 9.61763 23.25 9.75V10.875H21.375C20.859 10.875 20.1945 11.1503 19.8296 11.5151C19.7948 11.5499 19.7672 11.5913 19.7483 11.6368C19.7295 11.6823 19.7198 11.731 19.7198 11.7803C19.7198 11.8295 19.7295 11.8782 19.7483 11.9237C19.7672 11.9692 19.7948 12.0106 19.8296 12.0454C19.8644 12.0802 19.9058 12.1078 19.9513 12.1267C19.9968 12.1455 20.0455 12.1552 20.0947 12.1552C20.144 12.1552 20.1927 12.1455 20.2382 12.1267C20.2837 12.1078 20.3251 12.0802 20.3599 12.0454C20.58 11.8252 21.0637 11.625 21.375 11.625H22.125V12C22.125 12.4136 21.7886 12.75 21.375 12.75H20.25C20.1505 12.75 20.0552 12.7895 19.9848 12.8598C19.9145 12.9302 19.875 13.0255 19.875 13.125C19.875 13.2245 19.9145 13.3198 19.9848 13.3902C20.0552 13.4605 20.1505 13.5 20.25 13.5H21.375C22.2022 13.5 22.875 12.8273 22.875 12V11.625H23.25V13.5C23.25 14.1202 22.7453 14.625 22.125 14.625H19.2803ZM18.2197 14.625H5.59275L5.92238 14.2954C6.1425 14.0752 6.62625 13.875 6.9375 13.875H16.875C17.1863 13.875 17.67 14.0752 17.8901 14.2954L18.2197 14.625ZM4.335 5.25H19.665C20.0284 5.73037 20.4435 6.18488 20.8121 6.48L21.2633 6.84075L18.6109 7.90162L18.6101 7.902C18.5634 7.92084 18.5209 7.9489 18.4852 7.9845L18.1102 8.3595L17.4697 9H13.125C13.0757 8.99995 13.027 9.00963 12.9815 9.02849C12.936 9.04734 12.8947 9.075 12.8599 9.10987L12 9.96975L11.1401 9.10987C11.1053 9.075 11.064 9.04734 11.0185 9.02849C10.973 9.00963 10.9243 8.99995 10.875 9H6.53025L5.89012 8.35987L5.51512 7.98487C5.47946 7.94927 5.43699 7.92121 5.39025 7.90238L5.3895 7.902L2.73712 6.84113L3.18825 6.48038C3.5565 6.18488 3.97163 5.73037 4.335 5.25ZM22.8529 8.40713C22.7775 8.799 22.5345 9 22.125 9H19.2803L18.9053 8.625L18.9608 8.5695L21.9364 7.37925L22.2191 7.60575C22.4569 7.79588 22.6763 8.085 22.8529 8.40713ZM21 4.5H22.125V4.9425L21 5.1675V4.5ZM5.08687 4.0395L5.72025 2.646C6.003 2.02462 6.81787 1.5 7.5 1.5H16.5C17.1821 1.5 17.997 2.02463 18.2794 2.64563L18.9131 4.0395C18.9791 4.18425 19.065 4.34063 19.1591 4.5H4.84088C4.935 4.34063 5.02125 4.18425 5.08687 4.0395ZM1.875 4.5H3V5.1675L1.875 4.9425V4.5ZM1.7805 7.60575L2.06325 7.37925L5.03925 8.5695L5.09475 8.625L4.71975 9H1.875C1.4655 9 1.2225 8.799 1.14713 8.40713C1.32375 8.085 1.54275 7.79588 1.7805 7.60575ZM4.125 16.5H1.125C0.918375 16.5 0.75 16.3316 0.75 16.125V14.9906C1.07277 15.2385 1.46802 15.3736 1.875 15.375H4.5V16.125C4.5 16.3316 4.33162 16.5 4.125 16.5ZM22.875 16.5H19.875C19.6684 16.5 19.5 16.3316 19.5 16.125V15.375H22.125C22.5487 15.375 22.9357 15.2284 23.25 14.9906V16.125C23.25 16.3316 23.0816 16.5 22.875 16.5Z" fill="#777777"/>
</svg>
