<svg xmlns="http://www.w3.org/2000/svg" version="1.1" xmlns:xlink="http://www.w3.org/1999/xlink" xmlns:svgjs="http://svgjs.com/svgjs" width="512" height="512" x="0" y="0" viewBox="0 0 426.4 426.4" style="enable-background:new 0 0 512 512" xml:space="preserve" class=""><g><circle cx="315.2" cy="316" r="8" fill="#614B79" data-original="#000000" opacity="1" class=""></circle><path d="M73.6 186.4c-4 0-7.2-3.2-8-7.2-2.4-21.6 2.4-52 24-74.4 13.6-13.6 39.2-29.6 83.2-25.6 4 0 8 4 7.2 8.8 0 4.8-4 8-8.8 7.2-30.4-2.4-54.4 4-70.4 20.8-17.6 18.4-21.6 43.2-20 60.8.8 4-2.4 8-7.2 8.8.8.8.8.8 0 .8z" fill="#614B79" data-original="#000000" opacity="1" class=""></path><path d="M152 120c-1.6 0-4-.8-5.6-2.4-3.2-3.2-3.2-8 0-11.2L164 88l-18.4-17.6c-3.2-3.2-3.2-8 0-11.2s8-3.2 11.2 0l24 23.2c1.6 1.6 2.4 3.2 2.4 5.6s-.8 4-2.4 5.6l-23.2 24c-1.6 1.6-3.2 2.4-5.6 2.4zM311.2 187.2c-2.4 0-4.8-.8-5.6-2.4L288 165.6c-3.2-3.2-2.4-8 .8-11.2s8-2.4 11.2.8l12 12.8 56-60.8c3.2-3.2 8-3.2 11.2-.8 3.2 3.2 3.2 8 .8 11.2l-62.4 67.2c-1.6 1.6-4 2.4-6.4 2.4z" fill="#614B79" data-original="#000000" opacity="1" class=""></path><path d="M311.2 235.2c-34.4 0-62.4-28-62.4-62.4s28-62.4 62.4-62.4c4.8 0 8.8.8 13.6 1.6 4 .8 7.2 4.8 6.4 9.6s-4.8 7.2-9.6 6.4c-3.2-.8-6.4-.8-9.6-.8-25.6 0-46.4 20.8-46.4 46.4S286.4 220 312 220s46.4-20.8 46.4-46.4c0-9.6-3.2-19.2-8.8-27.2-2.4-3.2-1.6-8.8 1.6-11.2s8.8-1.6 11.2 1.6c8 10.4 12 23.2 12 36.8 0 32.8-28 61.6-63.2 61.6zM348.8 423.2H8c-4.8 0-8-3.2-8-8V208c0-4.8 3.2-8 8-8h203.2c4.8 0 8 3.2 8 8s-3.2 8-8 8H16v190.4h324.8v-19.2c0-4.8 3.2-8 8-8s8 3.2 8 8v27.2c0 4.8-4 8.8-8 8.8z" fill="#614B79" data-original="#000000" opacity="1" class=""></path><path d="M51.2 418.4c-4.8 0-8-3.2-8-8V212.8c0-4.8 3.2-8 8-8s8 3.2 8 8v198.4c0 4-3.2 7.2-8 7.2zM279.2 418.4c-4.8 0-8-3.2-8-8v-56.8c0-4.8 3.2-8 8-8s8 3.2 8 8v56.8c0 4.8-4 8-8 8z" fill="#614B79" data-original="#000000" opacity="1" class=""></path><path d="M380 359.2H212c-4.8 0-8-3.2-8-8v-340c0-2.4.8-4 2.4-5.6s3.2-2.4 5.6-2.4h206.4c4.8 0 8 3.2 8 8v302.4c0 24.8-20.8 45.6-46.4 45.6zm-160-16h160.8c16.8 0 30.4-13.6 30.4-30.4V18.4H220z" fill="#614B79" data-original="#000000" opacity="1" class=""></path><path d="M414.4 61.6H216c-4.8 0-8-3.2-8-8s3.2-8 8-8h198.4c4.8 0 8 3.2 8 8s-4 8-8 8zM414.4 288.8H216c-4.8 0-8-3.2-8-8s3.2-8 8-8h198.4c4.8 0 8 3.2 8 8s-4 8-8 8z" fill="#614B79" data-original="#000000" opacity="1" class=""></path></g></svg>