<svg width="24" height="25" viewBox="0 0 24 25" fill="none" xmlns="http://www.w3.org/2000/svg">
<path d="M17.17 10.3144L11.3164 15.4609C11.3086 15.4675 11.3011 15.4745 11.294 15.4819C11.1045 15.6704 11 15.9218 11 16.1899C11 16.7411 11.4483 17.1899 12 17.1899C12.2657 17.1899 12.5166 17.0864 12.7295 16.8735L17.876 11.0199C18.0498 10.8222 18.0401 10.5229 17.8536 10.3364C17.667 10.1504 17.3692 10.1406 17.17 10.3144Z" fill="#614b79"/>
<path d="M12 4.18994C5.3828 4.18994 0 9.57325 0 16.1899C0 17.4311 0.192375 18.6597 0.570328 19.8423C0.602687 19.9433 0.666281 20.0313 0.751936 20.0938C0.837591 20.1563 0.940881 20.19 1.04691 20.19H22.9531C23.1709 20.19 23.3633 20.0493 23.4297 19.8423C23.8076 18.6597 24 17.4312 24 16.1899C24 9.57325 18.6172 4.18994 12 4.18994ZM21.5 16.69H22.9653C22.9267 17.5356 22.8136 18.375 22.582 19.1899H1.41797C1.18641 18.3749 1.0733 17.5356 1.03467 16.69H2.49998C2.56566 16.69 2.6307 16.6771 2.69138 16.652C2.75207 16.6269 2.80721 16.59 2.85365 16.5436C2.90008 16.4972 2.93691 16.442 2.96203 16.3813C2.98714 16.3207 3.00004 16.2556 3 16.1899C3.00004 16.1243 2.98714 16.0592 2.96203 15.9985C2.93691 15.9379 2.90008 15.8827 2.85365 15.8363C2.80721 15.7898 2.75207 15.753 2.69138 15.7279C2.6307 15.7028 2.56566 15.6899 2.49998 15.6899H1.0253C1.09941 14.0531 1.52592 12.5088 2.24161 11.1333L3.52242 11.873C3.59844 11.9169 3.68465 11.9399 3.77241 11.9399C3.9443 11.9399 4.11323 11.8506 4.20502 11.6899C4.34367 11.4507 4.26164 11.145 4.02239 11.0068L2.74444 10.2687C3.60368 8.93064 4.74107 7.79331 6.07922 6.93414L6.81731 8.21289C6.90909 8.37307 7.07808 8.46288 7.24992 8.46288C7.33491 8.46288 7.42083 8.44141 7.49991 8.39599C7.73916 8.2578 7.82119 7.95213 7.68253 7.71288L6.94298 6.43169C8.31853 5.71591 9.86297 5.28935 11.4999 5.21524V6.68993C11.4999 6.9663 11.7236 7.18994 12 7.18994C12.2763 7.18994 12.5 6.9663 12.5 6.68993V5.21524C14.1369 5.28935 15.6814 5.71591 17.0569 6.43169L16.3174 7.71288C16.1787 7.95213 16.2607 8.2578 16.5 8.39599C16.576 8.43983 16.6622 8.46289 16.75 8.46288C16.9219 8.46288 17.0908 8.37302 17.1826 8.21289L17.9207 6.93414C19.2588 7.79331 20.3962 8.93064 21.2555 10.2687L19.9775 11.0068C19.7383 11.145 19.6562 11.4507 19.7949 11.6899C19.8867 11.8506 20.0557 11.9399 20.2275 11.9399C20.3153 11.9399 20.4015 11.9169 20.4775 11.873L21.7583 11.1333C22.474 12.5088 22.9005 14.0531 22.9746 15.6899H21.4999C21.4342 15.6899 21.3692 15.7028 21.3085 15.7279C21.2478 15.753 21.1927 15.7898 21.1463 15.8363C21.0998 15.8827 21.063 15.9379 21.0379 15.9985C21.0128 16.0592 20.9999 16.1243 20.9999 16.1899C20.9999 16.2556 21.0128 16.3207 21.0379 16.3813C21.0631 16.442 21.0999 16.4971 21.1464 16.5436C21.1928 16.59 21.2479 16.6268 21.3086 16.652C21.3693 16.6771 21.4343 16.69 21.5 16.69Z" fill="#614b79"/>
</svg>