<svg width="24" height="25" viewBox="0 0 24 25" fill="none" xmlns="http://www.w3.org/2000/svg">
<g clip-path="url(#clip0_1428_3335)">
<path d="M13.2001 12.9889C13.2001 12.8829 13.1579 12.7811 13.0829 12.7061C13.0079 12.6311 12.9062 12.5889 12.8001 12.5889H11.1999C10.979 12.5889 10.7999 12.768 10.7999 12.9889C10.7999 13.2099 10.979 13.389 11.1999 13.389H12.8001C12.8526 13.389 12.9046 13.3786 12.9532 13.3585C13.0017 13.3384 13.0458 13.309 13.0829 13.2718C13.1201 13.2347 13.1495 13.1906 13.1696 13.142C13.1897 13.0935 13.2001 13.0415 13.2001 12.9889ZM10.3999 8.98863H9.59978C9.49369 8.98863 9.39194 9.03077 9.31692 9.10579C9.24191 9.18081 9.19976 9.28256 9.19976 9.38865C9.19976 9.49474 9.24191 9.59648 9.31692 9.6715C9.39194 9.74652 9.49369 9.78866 9.59978 9.78866C9.59978 9.89476 9.64192 9.9965 9.71694 10.0715C9.79196 10.1465 9.89371 10.1887 9.9998 10.1887C10.1059 10.1887 10.2076 10.1465 10.2827 10.0715C10.3577 9.9965 10.3998 9.89476 10.3998 9.78866C10.5059 9.78866 10.6077 9.74652 10.6827 9.6715C10.7577 9.59648 10.7998 9.49474 10.7998 9.38865C10.7998 9.33612 10.7895 9.2841 10.7694 9.23556C10.7493 9.18703 10.7199 9.14293 10.6827 9.10578C10.6456 9.06863 10.6015 9.03917 10.5529 9.01907C10.5044 8.99897 10.4524 8.98862 10.3999 8.98863ZM14.4002 8.98863H13.6001C13.494 8.98863 13.3923 9.03077 13.3172 9.10579C13.2422 9.18081 13.2001 9.28256 13.2001 9.38865C13.2001 9.49474 13.2422 9.59648 13.3172 9.6715C13.3923 9.74652 13.494 9.78866 13.6001 9.78866C13.6001 9.89476 13.6422 9.9965 13.7173 10.0715C13.7923 10.1465 13.894 10.1887 14.0001 10.1887C14.1062 10.1887 14.208 10.1465 14.283 10.0715C14.358 9.9965 14.4001 9.89476 14.4001 9.78866C14.5062 9.78866 14.608 9.74652 14.683 9.6715C14.758 9.59648 14.8002 9.49474 14.8002 9.38865C14.8002 9.33611 14.7898 9.28409 14.7697 9.23555C14.7497 9.18702 14.7202 9.14291 14.683 9.10577C14.6459 9.06862 14.6018 9.03915 14.5533 9.01905C14.5047 8.99895 14.4527 8.98862 14.4002 8.98863ZM11.6 11.7888H12.4C12.5061 11.7888 12.6079 11.7467 12.6829 11.6717C12.7579 11.5967 12.8001 11.4949 12.8001 11.3888C12.8001 11.2827 12.7579 11.181 12.6829 11.106C12.6079 11.031 12.5061 10.9888 12.4 10.9888H11.6C11.4939 10.9888 11.3921 11.031 11.3171 11.106C11.2421 11.181 11.1999 11.2827 11.1999 11.3888C11.1999 11.4949 11.2421 11.5967 11.3171 11.6717C11.3921 11.7467 11.4939 11.7888 11.6 11.7888ZM10.7999 8.58861C10.906 8.58861 11.0077 8.54647 11.0827 8.47145C11.1578 8.39643 11.1999 8.29468 11.1999 8.18859C11.1999 8.0825 11.1578 7.98075 11.0827 7.90574C11.0077 7.83072 10.906 7.78857 10.7999 7.78857H9.19976C9.09367 7.78857 8.99192 7.83072 8.91691 7.90574C8.84189 7.98075 8.79974 8.0825 8.79974 8.18859C8.79974 8.29468 8.84189 8.39643 8.91691 8.47145C8.99192 8.54647 9.09367 8.58861 9.19976 8.58861H10.7999ZM13.2001 8.58861H14.8002C15.0211 8.58861 15.2002 8.40953 15.2002 8.18859C15.2002 7.96765 15.0211 7.78857 14.8002 7.78857H13.2001C13.094 7.78857 12.9922 7.83072 12.9172 7.90574C12.8422 7.98075 12.8001 8.0825 12.8001 8.18859C12.8001 8.29468 12.8422 8.39643 12.9172 8.47145C12.9922 8.54647 13.094 8.58861 13.2001 8.58861Z" fill="#777777"/>
<path d="M4.39935 24.19H19.6006C20.4844 24.19 21.2008 23.4736 21.2008 22.5898V21.3897C21.2005 21.1416 21.1234 20.8996 20.9802 20.697C20.8369 20.4944 20.6345 20.3411 20.4007 20.258V18.8923C20.4029 18.4979 20.2548 18.1174 19.9866 17.8282C19.9047 16.8678 19.2159 16.0683 18.2781 15.8452L16.3239 15.3568C15.969 15.0634 15.5856 14.8062 15.1794 14.5892L16.1155 13.7719C16.331 13.5835 16.5035 13.3512 16.6217 13.0906C16.7398 12.83 16.8007 12.5471 16.8004 12.261V11.7489C17.8804 11.531 18.5793 10.4789 18.3614 9.39881C18.2953 9.07115 18.148 8.76536 17.9329 8.5095C17.7178 8.25365 17.4418 8.05595 17.1304 7.93455C17.4881 7.13962 17.6494 6.27028 17.6005 5.39994C17.6005 3.37098 15.6267 2.3733 14.669 2.00924C14.7263 1.96666 14.7879 1.93006 14.8526 1.90001C15.1536 1.76378 15.287 1.40942 15.1508 1.10855C15.0886 0.971195 14.9768 0.862397 14.8378 0.803931C10.6139 -1.00658 8.51729 1.70527 8.11966 2.30171C7.72607 2.49338 7.37656 2.76469 7.09328 3.09845C6.80999 3.43222 6.59909 3.82117 6.47393 4.24067C6.07391 5.61357 6.62792 7.12091 6.98955 7.891C5.93923 8.22449 5.35807 9.3463 5.69156 10.3966C5.79935 10.7361 5.99604 11.0405 6.26122 11.2783C6.5264 11.5161 6.85039 11.6786 7.19957 11.7489V12.261C7.19942 12.5468 7.26046 12.8294 7.37859 13.0898C7.49672 13.3501 7.66919 13.5821 7.88442 13.7703L8.82008 14.5892C8.41385 14.8067 8.03043 15.0644 7.67557 15.3584L5.7218 15.8453C4.78366 16.0685 4.09468 16.8685 4.01325 17.8294C3.74533 18.1183 3.59731 18.4983 3.59922 18.8923V20.258C3.3654 20.3411 3.16299 20.4944 3.01975 20.697C2.87651 20.8996 2.79945 21.1416 2.79913 21.3897V22.5898C2.79923 23.4736 3.51563 24.19 4.39935 24.19ZM10.7999 17.6962C10.2545 17.617 9.72878 17.4365 9.24972 17.1642C9.66532 16.8257 10.14 16.5672 10.6499 16.4017C10.6656 16.3968 10.6823 16.3959 10.6984 16.3989C10.7146 16.402 10.7298 16.409 10.7427 16.4193C10.7598 16.4312 10.7739 16.4471 10.7839 16.4655C10.7938 16.4839 10.7993 16.5043 10.7999 16.5253V17.6962ZM8.6597 17.7362C9.30731 18.1474 10.0384 18.4091 10.7999 18.5022V18.9895C10.5841 19.1517 10.4033 19.3557 10.2683 19.5894C10.1333 19.8231 10.0469 20.0817 10.0142 20.3496L7.99965 21.5161V21.3896C7.99928 21.2226 7.96383 21.0576 7.89561 20.9051C7.82739 20.7527 7.72791 20.6163 7.60362 20.5048C7.62586 19.4877 7.99895 18.5096 8.6597 17.7362ZM7.99965 22.9899V22.377C8.09937 22.3593 8.19547 22.3253 8.28406 22.2762L10.6003 20.9361C10.661 20.9009 10.7114 20.8504 10.7465 20.7896C10.7815 20.7288 10.7999 20.6598 10.7999 20.5897C10.8002 20.3793 10.8558 20.1728 10.9612 19.9907C11.0665 19.8087 11.2178 19.6575 11.3999 19.5524C11.4608 19.5172 11.5113 19.4667 11.5464 19.4058C11.5816 19.3449 11.6 19.2758 11.6 19.2056V16.5253C11.5995 16.3783 11.5644 16.2334 11.4974 16.1025C11.4304 15.9716 11.3334 15.8584 11.2143 15.7721C11.0998 15.6872 10.9666 15.631 10.8259 15.6081C10.6852 15.5852 10.541 15.5963 10.4055 15.6405C8.40201 16.2955 6.98725 18.0888 6.81638 20.1897H6.01395C6.04226 19.7421 6.12172 19.2991 6.25078 18.8696C7.19994 15.6944 10.5433 13.8899 13.7185 14.8391C14.6722 15.1242 15.54 15.642 16.2438 16.3461C16.9475 17.0501 17.465 17.9181 17.7497 18.872C17.8788 19.3007 17.9581 19.7428 17.9861 20.1897H17.1845C17.0283 18.0976 15.6257 16.3061 13.6322 15.6525C13.491 15.6049 13.3404 15.5915 13.193 15.6134C13.0455 15.6353 12.9054 15.6919 12.7841 15.7785C12.6644 15.8636 12.567 15.9762 12.5002 16.1069C12.4333 16.2377 12.399 16.3826 12.4001 16.5294V19.2056C12.4 19.2759 12.4185 19.345 12.4536 19.4058C12.4887 19.4667 12.5392 19.5173 12.6001 19.5524C12.7823 19.6576 12.9336 19.8087 13.0389 19.9908C13.1442 20.1728 13.1998 20.3794 13.2002 20.5897C13.2002 20.6599 13.2186 20.7289 13.2538 20.7897C13.2889 20.8505 13.3394 20.901 13.4002 20.9361L15.7204 22.2763C15.8076 22.3245 15.9022 22.358 16.0004 22.3755V22.9899C16.0017 23.1265 16.0266 23.2618 16.074 23.3899H15.6923C15.6148 23.2129 15.4832 23.065 15.3163 22.9675L12.9961 21.6274C12.9346 21.5919 12.8648 21.5734 12.7938 21.5738C12.7228 21.5742 12.6532 21.5935 12.5921 21.6298C12.4118 21.7328 12.2077 21.787 12 21.787C11.7924 21.787 11.5883 21.7328 11.408 21.6298C11.3469 21.5935 11.2773 21.5742 11.2063 21.5738C11.1353 21.5734 11.0654 21.5919 11.0039 21.6274L8.67653 22.9695C8.51303 23.0683 8.38396 23.2151 8.30689 23.3899H7.92605C7.97341 23.2618 7.99831 23.1265 7.99965 22.9899ZM13.2001 18.5023C13.9645 18.4089 14.6982 18.1455 15.3475 17.7314C16.0085 18.506 16.3795 19.4863 16.3971 20.5044C16.2726 20.616 16.173 20.7524 16.1046 20.9049C16.0363 21.0574 16.0007 21.2226 16.0003 21.3897V21.5141L13.9857 20.3496C13.9531 20.0817 13.8667 19.8231 13.7317 19.5893C13.5967 19.3556 13.4159 19.1516 13.2001 18.9895V18.5023ZM13.2001 17.6962V16.5293C13.1997 16.5098 13.2041 16.4906 13.213 16.4733C13.2218 16.456 13.2349 16.4411 13.2509 16.4301C13.2694 16.4173 13.2907 16.4091 13.3131 16.4062C13.3354 16.4033 13.3581 16.4057 13.3793 16.4133C13.879 16.5781 14.345 16.8315 14.755 17.1614C14.2748 17.4355 13.7473 17.6169 13.2001 17.6962ZM14.4478 23.3899H9.54858L11.2163 22.4298C11.4641 22.5349 11.7306 22.5891 11.9998 22.5891C12.269 22.5891 12.5354 22.5349 12.7832 22.4298L14.4478 23.3899ZM20.4007 21.3897V22.5898C20.4007 23.0317 20.0425 23.3899 19.6006 23.3899H17.2004C17.1479 23.3899 17.0958 23.3795 17.0473 23.3594C16.9988 23.3393 16.9547 23.3099 16.9175 23.2727C16.8804 23.2356 16.8509 23.1915 16.8308 23.1429C16.8107 23.0944 16.8004 23.0424 16.8004 22.9899V21.3897C16.8004 21.3372 16.8107 21.2852 16.8308 21.2367C16.8509 21.1881 16.8804 21.144 16.9175 21.1069C16.9547 21.0697 16.9988 21.0403 17.0473 21.0202C17.0958 21.0001 17.1479 20.9897 17.2004 20.9897H18.4005C18.5066 20.9897 18.6083 20.9476 18.6833 20.8726C18.7584 20.7975 18.8005 20.6958 18.8005 20.5897C18.8019 19.9307 18.706 19.275 18.5161 18.6439C18.5029 18.5991 18.4853 18.5563 18.4709 18.5119C18.5452 18.3736 18.6695 18.269 18.8185 18.2195C18.9056 18.1897 18.9987 18.182 19.0895 18.1972C19.1803 18.2124 19.2659 18.2499 19.3385 18.3063C19.4244 18.3772 19.4927 18.467 19.5382 18.5687C19.5836 18.6703 19.605 18.7811 19.6005 18.8924V20.5897C19.6005 20.8106 19.7797 20.9897 20.0006 20.9897C20.2215 20.9897 20.4007 21.1688 20.4007 21.3897ZM19.059 17.4006C18.893 17.3898 18.7265 17.4097 18.5678 17.4594C18.4162 17.5126 18.2747 17.591 18.1493 17.6914C17.9391 17.2495 17.6814 16.8318 17.3808 16.4457L18.0841 16.6213C18.2937 16.6721 18.4895 16.7682 18.6579 16.9028C18.8264 17.0375 18.9633 17.2074 19.059 17.4006ZM7.24316 4.46227C7.34428 4.13116 7.51599 3.82591 7.74644 3.56756C7.9769 3.3092 8.26063 3.10389 8.57809 2.96575C8.6501 2.92955 8.7097 2.87273 8.74929 2.80252C8.81572 2.68251 10.375 -0.0213256 14.1586 1.39282C14.0353 1.48864 13.9256 1.60073 13.8325 1.72604C13.7745 1.80128 13.7352 1.88921 13.7178 1.98261C13.7004 2.07601 13.7055 2.1722 13.7325 2.26327C13.7607 2.35604 13.8105 2.44074 13.878 2.51032C13.9455 2.5799 14.0287 2.63234 14.1205 2.66329C14.7494 2.8681 16.8004 3.66819 16.8004 5.39994C16.8162 5.98871 16.7449 6.57659 16.5888 7.1445C16.4238 6.7609 16.14 6.44045 15.7791 6.2304C15.7087 6.19433 15.6291 6.18039 15.5507 6.19041C13.4101 6.45762 12.8084 6.17363 11.8119 5.70278C11.2658 5.43457 10.7027 5.20233 10.1262 5.00752C9.83645 4.88731 9.52133 4.84108 9.20925 4.873C8.89716 4.90491 8.59792 5.01397 8.33849 5.19035C7.85878 5.58643 7.52695 6.13296 7.39683 6.74129C7.12401 6.01295 7.07059 5.22064 7.24316 4.46227ZM8.41087 13.1674C8.2816 13.0544 8.17802 12.915 8.1071 12.7587C8.03617 12.6023 7.99953 12.4326 7.99965 12.2609V11.3889C7.99965 11.2828 7.9575 11.181 7.88249 11.106C7.80747 11.031 7.70572 10.9888 7.59963 10.9888C6.94084 10.9944 6.4023 10.4648 6.39676 9.806C6.39467 9.55624 6.47103 9.31212 6.61507 9.10807C6.75911 8.90402 6.96357 8.75033 7.19961 8.66867V9.38873C7.19961 9.49482 7.24176 9.59657 7.31678 9.67159C7.39179 9.7466 7.49354 9.78875 7.59963 9.78875C7.70572 9.78875 7.80747 9.7466 7.88249 9.67159C7.9575 9.59657 7.99965 9.49482 7.99965 9.38873V8.18863C7.99965 7.69701 8.14446 6.31769 8.80611 5.84084C8.96401 5.74112 9.14423 5.68226 9.33055 5.66955C9.51687 5.65684 9.70342 5.69068 9.8734 5.76804C10.4193 5.9534 10.9526 6.17402 11.47 6.42851C12.4981 6.91413 13.2461 7.26858 15.5035 7.00456C15.6726 7.14982 15.8055 7.33244 15.8917 7.53797C15.9779 7.7435 16.0151 7.96628 16.0003 8.18868V9.38878C16.0003 9.49487 16.0425 9.59661 16.1175 9.67163C16.1925 9.74665 16.2943 9.7888 16.4004 9.7888C16.5064 9.7888 16.6082 9.74665 16.6832 9.67163C16.7582 9.59661 16.8004 9.49487 16.8004 9.38878V8.66872C17.423 8.88413 17.7531 9.5635 17.5377 10.1861C17.456 10.4221 17.3023 10.6266 17.0983 10.7706C16.8942 10.9147 16.6501 10.991 16.4004 10.9889C16.2943 10.9889 16.1925 11.0311 16.1175 11.1061C16.0425 11.1811 16.0003 11.2829 16.0003 11.389V12.261C16.0005 12.4327 15.9638 12.6025 15.8929 12.7588C15.822 12.9152 15.7184 13.0545 15.5891 13.1675L14.375 14.2292C12.8457 13.6441 11.1543 13.6441 9.62499 14.2292L8.41087 13.1674ZM5.91588 16.6213L6.61874 16.4457C6.31804 16.8317 6.06049 17.2494 5.85067 17.6914C5.72537 17.5909 5.58387 17.5124 5.43223 17.4594C5.2735 17.4097 5.10696 17.3898 4.94099 17.4006C5.0367 17.2074 5.17358 17.0375 5.34201 16.9029C5.51044 16.7682 5.70632 16.6721 5.91588 16.6213ZM3.59926 21.3897C3.59926 21.1688 3.77834 20.9897 3.99928 20.9897C4.22022 20.9897 4.3993 20.8106 4.3993 20.5897V18.8923C4.39485 18.7811 4.41611 18.6704 4.46141 18.5688C4.50671 18.4671 4.57485 18.3773 4.66051 18.3063C4.73322 18.2499 4.8188 18.2124 4.90957 18.1973C5.00034 18.1821 5.09345 18.1897 5.18054 18.2195C5.32951 18.2689 5.45388 18.3736 5.52814 18.5119C5.51413 18.5555 5.49655 18.5971 5.48375 18.6411C5.29362 19.2731 5.19778 19.9297 5.19934 20.5897C5.19934 20.6957 5.24148 20.7975 5.3165 20.8725C5.39152 20.9475 5.49326 20.9897 5.59935 20.9897H6.79945C6.85198 20.9897 6.904 21 6.95253 21.0201C7.00107 21.0402 7.04516 21.0697 7.08231 21.1068C7.11945 21.144 7.14892 21.1881 7.16902 21.2366C7.18913 21.2851 7.19947 21.3372 7.19947 21.3897V22.9898C7.19947 23.0423 7.18913 23.0944 7.16902 23.1429C7.14892 23.1914 7.11945 23.2355 7.08231 23.2727C7.04516 23.3098 7.00107 23.3393 6.95253 23.3594C6.904 23.3795 6.85198 23.3898 6.79945 23.3898H4.39925C3.95737 23.3898 3.59917 23.0316 3.59917 22.5897V21.3897H3.59926Z" fill="#777777"/>
<path d="M12 20.9897C12.2209 20.9897 12.4 20.8106 12.4 20.5897C12.4 20.3688 12.2209 20.1897 12 20.1897C11.779 20.1897 11.5999 20.3688 11.5999 20.5897C11.5999 20.8106 11.779 20.9897 12 20.9897Z" fill="#777777"/>
</g>
<defs>
<clipPath id="clip0_1428_3335">
<rect width="24" height="24" fill="white" transform="translate(0 0.189941)"/>
</clipPath>
</defs>
</svg>
