<svg width="15" height="15" viewBox="0 0 15 15" fill="none" xmlns="http://www.w3.org/2000/svg">
<g id="Encapsulated Group" clip-path="url(#clip0_332_3439)">
<g id="Group">
<path id="Vector" d="M11.5817 0.710495L4.10399 8.18826C3.81838 8.47232 3.59196 8.81021 3.43783 9.18237C3.28371 9.55454 3.20493 9.95358 3.20607 10.3564V11.1801C3.20607 11.3428 3.27069 11.4988 3.38571 11.6138C3.50073 11.7288 3.65673 11.7934 3.8194 11.7934H4.64311C5.04592 11.7946 5.44496 11.7158 5.81712 11.5617C6.18929 11.4075 6.52718 11.1811 6.81124 10.8955L14.289 3.41775C14.6474 3.05844 14.8487 2.57164 14.8487 2.06412C14.8487 1.5566 14.6474 1.0698 14.289 0.710495C13.9245 0.362056 13.4396 0.167603 12.9354 0.167603C12.4311 0.167603 11.9463 0.362056 11.5817 0.710495ZM13.4217 2.5505L5.94399 10.0283C5.59814 10.372 5.13071 10.5655 4.64311 10.5668H4.43273V10.3564C4.43401 9.86879 4.62751 9.40135 4.97124 9.05551L12.449 1.57775C12.58 1.4526 12.7542 1.38277 12.9354 1.38277C13.1165 1.38277 13.2907 1.4526 13.4217 1.57775C13.5505 1.70686 13.6228 1.88177 13.6228 2.06412C13.6228 2.24647 13.5505 2.42138 13.4217 2.5505Z" fill="#6C757D"/>
<path id="Vector_2" d="M14.2463 5.64714C14.0837 5.64714 13.9276 5.71175 13.8126 5.82678C13.6976 5.9418 13.633 6.0978 13.633 6.26047V9.34002H11.1797C10.6917 9.34002 10.2236 9.53387 9.87857 9.87894C9.53351 10.224 9.33965 10.692 9.33965 11.18V13.6333H3.20632C2.71832 13.6333 2.25031 13.4395 1.90524 13.0944C1.56017 12.7494 1.36632 12.2813 1.36632 11.7933V3.20668C1.36632 2.71868 1.56017 2.25067 1.90524 1.90561C2.25031 1.56054 2.71832 1.36668 3.20632 1.36668H8.75208C8.91474 1.36668 9.07075 1.30206 9.18577 1.18704C9.30079 1.07202 9.36541 0.916014 9.36541 0.753348C9.36541 0.590682 9.30079 0.434678 9.18577 0.319656C9.07075 0.204634 8.91474 0.140015 8.75208 0.140015L3.20632 0.140015C2.39328 0.140989 1.61383 0.464396 1.03893 1.0393C0.464029 1.6142 0.140622 2.39365 0.139648 3.20668L0.139648 11.7933C0.140622 12.6064 0.464029 13.3858 1.03893 13.9607C1.61383 14.5356 2.39328 14.859 3.20632 14.86H10.1634C10.5663 14.8612 10.9654 14.7824 11.3377 14.6283C11.7099 14.4741 12.0479 14.2477 12.3321 13.9621L13.9611 12.3319C14.2468 12.0478 14.4733 11.7099 14.6275 11.3378C14.7817 10.9656 14.8606 10.5666 14.8597 10.1637V6.26047C14.8597 6.0978 14.795 5.9418 14.68 5.82678C14.565 5.71175 14.409 5.64714 14.2463 5.64714ZM11.4649 13.0948C11.2183 13.3408 10.9065 13.5111 10.5663 13.5855V11.18C10.5663 11.0174 10.6309 10.8613 10.746 10.7463C10.861 10.6313 11.017 10.5667 11.1797 10.5667H13.587C13.5111 10.9062 13.341 11.2174 13.0963 11.4646L11.4649 13.0948Z" fill="#6C757D"/>
</g>
</g>
<defs>
<clipPath id="clip0_332_3439">
<rect width="14.72" height="14.72" fill="white" transform="translate(0.139648 0.140015)"/>
</clipPath>
</defs>
</svg>
