<svg width="284" height="238" viewBox="0 0 284 238" fill="none" xmlns="http://www.w3.org/2000/svg">
<path d="M159.73 212.18C159.73 218.757 157.117 225.065 152.466 229.716C147.815 234.367 141.507 236.98 134.93 236.98H25.05C18.4726 236.98 12.1647 234.367 7.51376 229.716C2.86286 225.065 0.25 218.757 0.25 212.18V24.8C0.25 18.2226 2.86286 11.9147 7.51376 7.26375C12.1647 2.61285 18.4726 0 25.05 0H134.93C141.507 0 147.815 2.61285 152.466 7.26375C157.117 11.9147 159.73 18.2226 159.73 24.8V212.18ZM141 29.05C141 27.3704 140.669 25.7072 140.026 24.1555C139.384 22.6037 138.442 21.1938 137.254 20.0061C136.066 18.8184 134.656 17.8763 133.105 17.2336C131.553 16.5908 129.89 16.26 128.21 16.26H31.79C30.1104 16.26 28.4472 16.5908 26.8955 17.2336C25.3437 17.8763 23.9338 18.8184 22.7461 20.0061C21.5584 21.1938 20.6163 22.6037 19.9736 24.1555C19.3308 25.7072 19 27.3704 19 29.05V169.95C19 173.342 20.3475 176.595 22.7461 178.994C25.1447 181.392 28.3979 182.74 31.79 182.74H128.21C131.602 182.74 134.855 181.392 137.254 178.994C139.652 176.595 141 173.342 141 169.95V29.05ZM101.99 208.32C101.99 205.928 101.04 203.633 99.3481 201.942C97.6565 200.25 95.3623 199.3 92.97 199.3H68.53C66.1377 199.3 63.8435 200.25 62.1519 201.942C60.4603 203.633 59.51 205.928 59.51 208.32V211.48C59.51 213.872 60.4603 216.167 62.1519 217.858C63.8435 219.55 66.1377 220.5 68.53 220.5H92.97C95.3623 220.5 97.6565 219.55 99.3481 217.858C101.04 216.167 101.99 213.872 101.99 211.48V208.32Z" fill="#614B79"/>
<path d="M235.73 215.25H173.75C173.417 215.25 173.25 215.083 173.25 214.75V181.27C173.25 180.95 173.41 180.787 173.73 180.78C187.99 180.66 200.85 183.46 208.54 170.06C210.41 166.82 210.71 162.26 205.69 162.26C195.043 162.26 184.397 162.253 173.75 162.24C173.417 162.24 173.25 162.073 173.25 161.74V124.26C173.25 123.953 173.407 123.797 173.72 123.79C197.6 123.243 221.443 121.987 245.25 120.02C245.743 119.98 245.903 119.727 245.73 119.26C239.863 103.12 234.003 86.98 228.15 70.84C225.11 62.46 215.35 62.33 206.68 61.68C195.733 60.8667 184.77 60.5667 173.79 60.78C173.43 60.7867 173.25 60.61 173.25 60.25V46.27C173.25 45.95 173.41 45.7867 173.73 45.78C187.84 45.54 202.17 45.71 216.15 47.77C228.33 49.57 236.88 53.27 241.61 64.68C245.197 73.3467 251.503 89.7501 260.53 113.89C260.657 114.243 260.907 114.41 261.28 114.39C269.65 114 283.72 111.78 283.58 122.1C283.48 129.24 279.32 134.27 273.25 137.74C273.186 137.776 273.13 137.825 273.086 137.883C273.042 137.941 273.01 138.008 272.992 138.079C272.974 138.15 272.971 138.224 272.983 138.297C272.994 138.369 273.021 138.438 273.06 138.5C278.48 146.97 280 154.11 280 164.9C280.007 174.147 280.007 183.393 280 192.64C279.99 202.81 278.94 209.44 269.96 214.05C269.66 214.203 269.51 214.45 269.51 214.79C269.497 219.71 269.487 224.603 269.48 229.47C269.47 239.88 253.7 237.01 247.05 237.01C240.74 237.01 236.48 236.11 236.37 228.98C236.303 224.587 236.253 220.173 236.22 215.74C236.22 215.413 236.057 215.25 235.73 215.25ZM225.87 173.68C224.54 177.99 226.37 182.01 231.56 181.34C238.03 180.5 262.53 177.95 265.79 172.53C268.02 168.8 267.84 161.49 265.32 157.65C262.04 152.66 246.32 156.57 241 158.26C233.347 160.693 228.303 165.833 225.87 173.68Z" fill="#614B79"/>
</svg>
