<svg width="544" height="548" viewBox="0 0 544 548" fill="none" xmlns="http://www.w3.org/2000/svg">
<path d="M-149 240C-149 240 202.5 269.5 104 315C5.5 360.5 249.885 444 173.693 539.5C97.5 635 179 667.5 179 667.5" stroke="white"/>
<path d="M-45 170C-45 170 306.5 199.5 208 245C109.5 290.5 353.885 374 277.693 469.5C201.5 565 283 597.5 283 597.5" stroke="white"/>
<path d="M-60 68.4224C-60 68.4224 106.031 8.69949 276.047 151.155C446.063 293.611 250.635 254.14 366.944 385.962C483.254 517.783 375.666 540 375.666 540" stroke="white"/>
<path d="M101 12.6525C101 12.6525 253.569 -43.3687 409.8 90.2573C566.031 223.883 386.448 186.859 493.327 310.509C600.207 434.16 501.342 455 501.342 455" stroke="white"/>
</svg>
