<svg width="152" height="21" viewBox="0 0 152 21" fill="none" xmlns="http://www.w3.org/2000/svg">
<path d="M11.6936 4.18263C12.8187 4.18263 13.7307 3.27046 13.7307 2.14551C13.7307 1.02036 12.8187 0.108398 11.6936 0.108398C10.5685 0.108398 9.65649 1.02036 9.65649 2.14551C9.65649 3.27046 10.5685 4.18263 11.6936 4.18263Z" fill="#614B79"/>
<path d="M26.7019 6.75148L26.6895 1.93911C26.6895 1.90096 26.6996 1.86365 26.7188 1.83107C26.738 1.79849 26.7656 1.77169 26.7988 1.75354L29.7266 0.198902C29.7415 0.190861 29.7584 0.186945 29.7753 0.187563C29.7924 0.188182 29.8089 0.193133 29.8233 0.202206C29.8376 0.211072 29.8495 0.223855 29.8574 0.238701C29.8654 0.253752 29.8693 0.270453 29.8689 0.287567C29.6586 4.5453 29.8772 8.85252 29.8668 13.1041C29.8613 15.3995 29.0056 17.2944 27.2998 18.7886C21.3658 23.9845 12.3926 17.8814 15.1286 10.4938C16.8709 5.78654 22.3514 4.15354 26.5081 6.85664C26.6372 6.94035 26.7019 6.90529 26.7019 6.75148ZM26.6339 13.1247C26.6339 11.9587 26.1708 10.8406 25.3462 10.0162C24.5219 9.1919 23.4038 8.72881 22.238 8.72881C21.6607 8.72881 21.0891 8.84241 20.5557 9.06344C20.0223 9.28427 19.5378 9.60798 19.1296 10.0162C18.7214 10.4245 18.3976 10.909 18.1767 11.4424C17.9557 11.9756 17.842 12.5474 17.842 13.1247C17.842 14.2905 18.3052 15.4086 19.1296 16.2329C19.954 17.0573 21.072 17.5206 22.238 17.5206C23.4038 17.5206 24.5219 17.0573 25.3462 16.2329C26.1708 15.4086 26.6339 14.2905 26.6339 13.1247Z" fill="#614B79"/>
<path d="M0.586476 20.8245C0.493005 20.8245 0.446269 20.7777 0.446269 20.6843C0.420152 18.0519 0.412592 15.3874 0.423588 12.6905C0.442145 8.2678 4.36174 5.1544 8.66896 5.36883C8.6972 5.36986 8.72397 5.38182 8.74357 5.40224C8.76318 5.42265 8.77413 5.44965 8.77411 5.47811V8.71522C8.77411 8.77976 8.7418 8.8113 8.6772 8.81007C5.86689 8.74615 3.6504 10.5874 3.66896 13.474C3.68407 15.8822 3.70675 18.2905 3.737 20.6987C3.73836 20.7853 3.69576 20.8286 3.60916 20.8286L0.586476 20.8245Z" fill="#614B79"/>
<path d="M143.38 20.8341C143.297 20.8356 143.255 20.7943 143.255 20.7104C143.267 18.536 143.263 16.331 143.242 14.096C143.23 12.5104 143.205 11.2444 143.875 9.84238C145.32 6.82114 147.822 5.32692 151.38 5.35991C151.499 5.36135 151.558 5.42053 151.558 5.53723V8.67743C151.558 8.77104 151.511 8.81847 151.418 8.8197C150.714 8.82383 149.999 8.8362 149.364 9.11043C147.38 9.96548 146.409 11.503 146.451 13.7228C146.493 16.028 146.514 18.3655 146.512 20.7352C146.512 20.7764 146.492 20.797 146.451 20.797L143.38 20.8341Z" fill="#614B79"/>
<path d="M13.5165 5.52539H9.96181C9.9322 5.52539 9.9082 5.54931 9.9082 5.579V20.7295C9.9082 20.759 9.9322 20.7831 9.96181 20.7831H13.5165C13.5461 20.7831 13.5701 20.759 13.5701 20.7295V5.579C13.5701 5.54931 13.5461 5.52539 13.5165 5.52539Z" fill="#614B79"/>
<path d="M67.8854 18.7844C64.4792 15.8174 64.4978 10.57 67.7802 7.52256C72.1596 3.45659 78.7617 5.9205 80.3101 11.4339C80.3143 11.4492 80.3151 11.465 80.312 11.4805C80.3091 11.496 80.3027 11.5104 80.2932 11.523C80.284 11.5353 80.2718 11.5452 80.2578 11.552C80.244 11.5589 80.2287 11.5622 80.2132 11.5617L77.1266 11.5019C77.1002 11.5021 77.0745 11.4943 77.0522 11.4797C77.0297 11.465 77.012 11.4442 77.0009 11.4195C75.3741 7.97411 70.8668 7.74937 69.0462 11.0793C67.8194 13.3246 68.8277 16.1659 71.1328 17.1638C73.4771 18.1803 75.9184 17.137 76.9988 14.8112C77.0332 14.737 77.0916 14.6999 77.1741 14.6999H80.2153C80.2308 14.7001 80.246 14.7036 80.26 14.7106C80.2738 14.7176 80.286 14.7275 80.2953 14.7399C80.3048 14.7523 80.3112 14.7667 80.3141 14.7819C80.3169 14.7972 80.3163 14.8129 80.3122 14.8277C78.8091 20.4112 72.3576 22.6813 67.8854 18.7844Z" fill="#614B79"/>
<path d="M93.1514 19.3313C90.7693 20.8927 88.3006 21.1346 85.7452 20.057C82.7287 18.7869 80.8503 15.2983 81.3019 12.0777C82.4111 4.18901 93.2854 3.12509 96.0338 10.5993C96.5204 11.9189 96.4854 13.521 96.4483 14.9581C96.4017 16.8109 96.3885 18.6638 96.4091 20.5168C96.4091 20.5911 96.372 20.6282 96.2977 20.6282H93.3617C93.293 20.6282 93.2586 20.5937 93.2586 20.5251V19.3911C93.2586 19.3045 93.2229 19.2845 93.1514 19.3313ZM93.2297 13.0962C93.2297 12.5189 93.1161 11.9472 92.8951 11.414C92.6742 10.8806 92.3505 10.396 91.9423 9.98776C91.534 9.57952 91.0495 9.25581 90.5161 9.03478C89.9827 8.81395 89.4111 8.70034 88.8338 8.70034C88.2567 8.70034 87.685 8.81395 87.1516 9.03478C86.6184 9.25581 86.1338 9.57952 85.7256 9.98776C85.3173 10.396 84.9936 10.8806 84.7726 11.414C84.5518 11.9472 84.4379 12.5189 84.4379 13.0962C84.4379 14.262 84.9012 15.3801 85.7256 16.2045C86.5499 17.0288 87.6681 17.4921 88.8338 17.4921C89.9998 17.4921 91.1179 17.0288 91.9423 16.2045C92.7666 15.3801 93.2297 14.262 93.2297 13.0962Z" fill="#614B79"/>
<path d="M34.3454 14.6361C34.3219 14.6369 34.299 14.6435 34.2788 14.6555C34.2586 14.6672 34.2417 14.6839 34.2293 14.7039C34.2172 14.7239 34.2099 14.7466 34.2087 14.7699C34.2073 14.7934 34.2118 14.8167 34.2217 14.8381C35.4464 17.4794 38.5475 18.4134 40.9681 16.7103C41.133 16.5949 41.3763 16.3289 41.6155 16.1845C41.6732 16.1487 41.7337 16.1433 41.797 16.168L44.4671 17.2093C44.6691 17.2876 44.6992 17.4093 44.5578 17.5742C43.0306 19.3542 41.2541 20.3734 39.2279 20.632C31.7846 21.5825 27.6918 12.0897 33.4836 7.32062C38.5351 3.16186 45.6712 6.6464 45.898 13.1516C45.9089 13.4538 45.8794 13.8085 45.8093 14.2155C45.797 14.2856 45.7557 14.3212 45.6856 14.3227L34.3454 14.6361ZM42.2403 11.5206C42.3652 11.5177 42.4031 11.4594 42.3537 11.3454C40.7433 7.63402 35.7598 8.05052 34.1454 11.566C34.1013 11.6621 34.1322 11.7089 34.2382 11.7062L42.2403 11.5206Z" fill="#614B79"/>
<path d="M100.263 20.7308H97.4361C97.3675 20.7308 97.333 20.6966 97.333 20.6277C97.3289 17.6518 97.3283 14.6792 97.331 11.7102C97.3324 11.2058 97.4479 10.6347 97.6774 9.99676C99.7784 4.16377 108.978 4.04006 111.011 10.0483C111.238 10.7234 111.353 11.9122 111.356 13.6153C111.36 15.9493 111.344 18.2834 111.308 20.6174C111.307 20.6931 111.268 20.7308 111.193 20.7308H108.312C108.244 20.7308 108.209 20.6966 108.209 20.6277C108.205 18.1508 108.205 15.6772 108.209 13.2071C108.209 12.3246 108.174 10.8834 107.426 10.0359C105.857 8.25862 102.585 8.26686 101.147 10.1617C100.623 10.8559 100.378 11.7164 100.415 12.7432C100.498 15.0689 100.486 17.6951 100.378 20.6215C100.376 20.6945 100.337 20.7308 100.263 20.7308Z" fill="#614B79"/>
<path d="M112.22 12.3804C112.236 3.44436 126.012 3.37013 126.292 11.9825C126.33 13.1689 126.305 16.0582 126.216 20.6505C126.216 20.7042 126.188 20.731 126.133 20.731H123.212C123.184 20.731 123.158 20.7204 123.139 20.7015C123.119 20.6825 123.108 20.6567 123.108 20.6299C123.1 18.1448 123.099 15.6658 123.104 13.1928C123.107 12.0794 123.009 11.285 122.809 10.8093C121.636 8.01962 116.886 8.02993 115.688 10.7908C115.475 11.2829 115.369 12.2184 115.37 13.5969C115.373 15.9557 115.374 18.3118 115.372 20.665C115.372 20.6773 115.37 20.6897 115.365 20.7011C115.36 20.7124 115.353 20.7227 115.344 20.7314C115.335 20.74 115.324 20.7468 115.312 20.7514C115.301 20.7559 115.288 20.7582 115.275 20.7578L112.335 20.7227C112.27 20.7227 112.238 20.6905 112.238 20.6258C112.22 17.8782 112.214 15.1297 112.22 12.3804Z" fill="#614B79"/>
<path d="M130.799 14.6307C130.775 14.6312 130.752 14.6375 130.732 14.6493C130.711 14.6611 130.694 14.6778 130.681 14.6978C130.669 14.7178 130.662 14.7406 130.66 14.7641C130.659 14.7879 130.663 14.8114 130.673 14.8328C131.822 17.3545 134.741 18.3524 137.166 16.8761C137.442 16.7091 137.733 16.4142 138.03 16.1874C138.057 16.1672 138.089 16.1543 138.122 16.1495C138.156 16.1448 138.19 16.1487 138.222 16.1606L141.038 17.2514C141.05 17.2559 141.061 17.2633 141.07 17.273C141.079 17.2827 141.086 17.2942 141.089 17.307C141.093 17.3198 141.094 17.3332 141.092 17.3464C141.09 17.3596 141.085 17.3722 141.077 17.3833C137.793 22.072 130.521 21.7874 127.989 16.4885C125.516 11.3112 129.302 5.35858 134.943 5.58126C139.589 5.76476 142.883 9.5792 142.261 14.206C142.251 14.2844 142.206 14.3241 142.127 14.3256L130.799 14.6307ZM138.857 11.4679C137.533 7.64724 132.069 8.03693 130.63 11.5503C130.623 11.5668 130.62 11.585 130.622 11.6029C130.624 11.6209 130.63 11.638 130.641 11.6528C130.651 11.6674 130.665 11.6794 130.681 11.6874C130.697 11.6955 130.715 11.6994 130.733 11.6988L138.813 11.5318C138.821 11.5316 138.828 11.5295 138.834 11.526C138.841 11.5225 138.846 11.5173 138.85 11.5112C138.855 11.505 138.857 11.498 138.858 11.4903C138.859 11.4829 138.859 11.4751 138.857 11.4679Z" fill="#614B79"/>
<path d="M54.8543 13.469C52.5079 12.6071 51.6007 10.7886 52.475 8.41952C53.1335 6.63395 54.4387 5.70549 56.3904 5.63395C58.4661 5.55848 60.5279 5.69993 62.576 6.05869C62.6255 6.06694 62.642 6.09518 62.6255 6.14323L61.6935 8.66693C61.6717 8.72755 61.629 8.75498 61.5657 8.74941C60.2028 8.62776 57.1966 8.05251 56.0564 8.72879C55.5801 9.01333 55.3162 9.95353 55.9492 10.304C58.4832 11.704 64.411 11.4051 64.4069 15.5247C64.4049 19.6298 60.2791 20.735 56.9739 20.4278C55.7286 20.3111 54.4764 20.2003 53.2172 20.0958C53.1987 20.0944 53.1805 20.0884 53.1649 20.0783C53.149 20.0682 53.1358 20.0544 53.1263 20.0381C53.1168 20.0218 53.1112 20.0032 53.1102 19.9843C53.1092 19.9653 53.1127 19.9463 53.1203 19.9288L54.2976 17.2669C54.3279 17.1968 54.3801 17.1673 54.4543 17.1783C55.6028 17.3267 61.444 18.3783 60.8646 15.935C60.7348 15.3948 60.1616 14.9577 59.6523 14.8463C57.9176 14.4657 56.3183 14.0065 54.8543 13.469Z" fill="#614B79"/>
</svg>
