<svg width="222" height="49" viewBox="0 0 222 49" fill="none" xmlns="http://www.w3.org/2000/svg">
<path d="M32.8825 43.7485C32.8825 45.1045 32.3437 46.4052 31.3849 47.3641C30.426 48.3231 29.1254 48.8619 27.7691 48.8619H5.1134C3.75732 48.8619 2.4567 48.3231 1.49773 47.3641C0.538761 46.4052 0 45.1045 0 43.7485V5.1134C0 3.75724 0.538761 2.45664 1.49773 1.49768C2.4567 0.538732 3.75732 0 5.1134 0H27.7691C29.1254 0 30.426 0.538732 31.3849 1.49768C32.3437 2.45664 32.8825 3.75724 32.8825 5.1134V43.7485ZM29.0206 5.98969C29.0206 5.64338 28.9524 5.30045 28.82 4.98052C28.6874 4.66056 28.4932 4.36986 28.2482 4.12497C28.0035 3.88008 27.7128 3.68584 27.3928 3.55332C27.0728 3.42078 26.7299 3.35258 26.3835 3.35258H6.50309C6.15691 3.35258 5.81381 3.42078 5.49402 3.55332C5.17402 3.68584 4.8833 3.88008 4.63835 4.12497C4.39361 4.36986 4.19938 4.66056 4.0668 4.98052C3.93423 5.30045 3.86598 5.64338 3.86598 5.98969V35.0412C3.86598 35.7406 4.14391 36.4113 4.63835 36.906C5.13299 37.4004 5.80371 37.6784 6.50309 37.6784H26.3835C27.0829 37.6784 27.7538 37.4004 28.2482 36.906C28.7429 36.4113 29.0206 35.7406 29.0206 35.0412V5.98969ZM20.9773 42.9526C20.9773 42.4594 20.7814 41.9862 20.4326 41.6375C20.0839 41.2887 19.6109 41.0928 19.1175 41.0928H14.0783C13.5852 41.0928 13.1122 41.2887 12.7633 41.6375C12.4146 41.9862 12.2186 42.4594 12.2186 42.9526V43.6041C12.2186 44.0973 12.4146 44.5705 12.7633 44.9192C13.1122 45.268 13.5852 45.4639 14.0783 45.4639H19.1175C19.6109 45.4639 20.0839 45.268 20.4326 44.9192C20.7814 44.5705 20.9773 44.0973 20.9773 43.6041V42.9526Z" fill="#614B79"/>
<path d="M48.5526 44.3813H35.7733C35.7046 44.3813 35.6702 44.3469 35.6702 44.2782V37.3751C35.6702 37.3091 35.7032 37.2755 35.7691 37.2741C38.7093 37.2493 41.3609 37.8267 42.9465 35.0638C43.332 34.3957 43.3939 33.4555 42.3588 33.4555C40.1638 33.4555 37.9685 33.4541 35.7733 33.4514C35.7046 33.4514 35.6702 33.417 35.6702 33.3483V25.6205C35.6702 25.5572 35.7025 25.525 35.7671 25.5236C40.6908 25.4108 45.6071 25.1518 50.5155 24.7463C50.6174 24.738 50.6504 24.6858 50.6145 24.5896C49.405 21.2617 48.1968 17.9339 46.9898 14.6061C46.3629 12.8782 44.3506 12.8514 42.563 12.7174C40.306 12.5497 38.0454 12.4878 35.7815 12.5318C35.7073 12.5332 35.6702 12.4968 35.6702 12.4225V9.54007C35.6702 9.47409 35.7032 9.44042 35.7691 9.43904C38.6784 9.38956 41.6331 9.42461 44.5155 9.84935C47.0269 10.2205 48.7898 10.9834 49.765 13.3359C50.5046 15.1229 51.805 18.505 53.666 23.4823C53.6922 23.5551 53.7438 23.5896 53.8207 23.5854C55.5465 23.505 58.4475 23.0473 58.4186 25.1751C58.398 26.6473 57.5403 27.6844 56.2887 28.3999C56.2755 28.4073 56.2642 28.4174 56.2549 28.4293C56.2458 28.4413 56.2392 28.4551 56.2355 28.4698C56.2318 28.4844 56.2312 28.4997 56.2337 28.5147C56.2361 28.5296 56.2415 28.5438 56.2495 28.5566C57.3671 30.303 57.6805 31.7751 57.6805 33.9999C57.6819 35.9065 57.6819 37.8129 57.6805 39.7195C57.6784 41.8164 57.4619 43.1834 55.6104 44.1339C55.5485 44.1654 55.5176 44.2164 55.5176 44.2865C55.5149 45.3009 55.5128 46.3098 55.5114 47.3133C55.5093 49.4597 52.2578 48.8679 50.8867 48.8679C49.5856 48.8679 48.7073 48.6823 48.6846 47.2122C48.671 46.3065 48.6607 45.3964 48.6537 44.4823C48.6537 44.4149 48.6201 44.3813 48.5526 44.3813ZM46.5196 35.8102C46.2454 36.6988 46.6227 37.5277 47.6928 37.3896C49.0269 37.2164 54.0784 36.6906 54.7506 35.5731C55.2104 34.804 55.1733 33.2968 54.6537 32.505C53.9774 31.4762 50.7361 32.2823 49.6392 32.6308C48.0613 33.1324 47.0215 34.1922 46.5196 35.8102Z" fill="#614B79"/>
<path d="M81.6936 18.1826C82.8187 18.1826 83.7307 17.2705 83.7307 16.1455C83.7307 15.0204 82.8187 14.1084 81.6936 14.1084C80.5685 14.1084 79.6565 15.0204 79.6565 16.1455C79.6565 17.2705 80.5685 18.1826 81.6936 18.1826Z" fill="#614B79"/>
<path d="M96.7019 20.7515L96.6895 15.9391C96.6895 15.901 96.6996 15.8636 96.7188 15.8311C96.738 15.7985 96.7656 15.7717 96.7988 15.7535L99.7266 14.1989C99.7415 14.1909 99.7584 14.1869 99.7753 14.1876C99.7924 14.1882 99.8089 14.1931 99.8233 14.2022C99.8376 14.2111 99.8495 14.2239 99.8574 14.2387C99.8654 14.2538 99.8693 14.2705 99.8689 14.2876C99.6586 18.5453 99.8772 22.8525 99.8668 27.1041C99.8613 29.3995 99.0056 31.2944 97.2998 32.7886C91.3658 37.9845 82.3926 31.8814 85.1286 24.4938C86.8709 19.7865 92.3514 18.1535 96.5081 20.8566C96.6372 20.9403 96.7019 20.9053 96.7019 20.7515ZM96.6339 27.1247C96.6339 25.9587 96.1708 24.8406 95.3462 24.0162C94.5219 23.1919 93.4038 22.7288 92.238 22.7288C91.6607 22.7288 91.0891 22.8424 90.5557 23.0634C90.0223 23.2843 89.5378 23.608 89.1296 24.0162C88.7214 24.4245 88.3976 24.909 88.1767 25.4424C87.9557 25.9756 87.842 26.5474 87.842 27.1247C87.842 28.2905 88.3052 29.4086 89.1296 30.2329C89.954 31.0573 91.072 31.5206 92.238 31.5206C93.4038 31.5206 94.5219 31.0573 95.3462 30.2329C96.1708 29.4086 96.6339 28.2905 96.6339 27.1247Z" fill="#614B79"/>
<path d="M70.5865 34.8245C70.493 34.8245 70.4463 34.7777 70.4463 34.6843C70.4202 32.0519 70.4126 29.3874 70.4236 26.6905C70.4421 22.2678 74.3617 19.1544 78.669 19.3688C78.6972 19.3699 78.724 19.3818 78.7436 19.4022C78.7632 19.4226 78.7741 19.4497 78.7741 19.4781V22.7152C78.7741 22.7798 78.7418 22.8113 78.6772 22.8101C75.8669 22.7462 73.6504 24.5874 73.669 27.474C73.6841 29.8822 73.7067 32.2905 73.737 34.6987C73.7384 34.7853 73.6958 34.8286 73.6092 34.8286L70.5865 34.8245Z" fill="#614B79"/>
<path d="M213.38 34.8341C213.297 34.8356 213.255 34.7943 213.255 34.7104C213.267 32.536 213.263 30.331 213.242 28.096C213.23 26.5104 213.205 25.2444 213.875 23.8424C215.32 20.8211 217.822 19.3269 221.38 19.3599C221.499 19.3614 221.558 19.4205 221.558 19.5372V22.6774C221.558 22.771 221.511 22.8185 221.418 22.8197C220.714 22.8238 219.999 22.8362 219.364 23.1104C217.38 23.9655 216.409 25.503 216.451 27.7228C216.493 30.028 216.514 32.3655 216.512 34.7352C216.512 34.7764 216.492 34.797 216.451 34.797L213.38 34.8341Z" fill="#614B79"/>
<path d="M83.5165 19.5254H79.9618C79.9322 19.5254 79.9082 19.5493 79.9082 19.579V34.7295C79.9082 34.759 79.9322 34.7831 79.9618 34.7831H83.5165C83.5461 34.7831 83.5701 34.759 83.5701 34.7295V19.579C83.5701 19.5493 83.5461 19.5254 83.5165 19.5254Z" fill="#614B79"/>
<path d="M137.885 32.7844C134.479 29.8174 134.498 24.57 137.78 21.5226C142.16 17.4566 148.762 19.9205 150.31 25.4339C150.314 25.4492 150.315 25.465 150.312 25.4805C150.309 25.496 150.303 25.5104 150.293 25.523C150.284 25.5353 150.272 25.5452 150.258 25.552C150.244 25.5589 150.229 25.5622 150.213 25.5617L147.127 25.5019C147.1 25.5021 147.074 25.4943 147.052 25.4797C147.03 25.465 147.012 25.4442 147.001 25.4195C145.374 21.9741 140.867 21.7494 139.046 25.0793C137.819 27.3246 138.828 30.1659 141.133 31.1638C143.477 32.1803 145.918 31.137 146.999 28.8112C147.033 28.737 147.092 28.6999 147.174 28.6999H150.215C150.231 28.7001 150.246 28.7036 150.26 28.7106C150.274 28.7176 150.286 28.7275 150.295 28.7399C150.305 28.7523 150.311 28.7667 150.314 28.7819C150.317 28.7972 150.316 28.8129 150.312 28.8277C148.809 34.4112 142.358 36.6813 137.885 32.7844Z" fill="#614B79"/>
<path d="M163.151 33.3313C160.769 34.8927 158.301 35.1346 155.745 34.057C152.729 32.7869 150.85 29.2983 151.302 26.0777C152.411 18.189 163.285 17.1251 166.034 24.5993C166.52 25.9189 166.485 27.521 166.448 28.9581C166.402 30.8109 166.388 32.6638 166.409 34.5168C166.409 34.5911 166.372 34.6282 166.298 34.6282H163.362C163.293 34.6282 163.259 34.5937 163.259 34.5251V33.3911C163.259 33.3045 163.223 33.2845 163.151 33.3313ZM163.23 27.0962C163.23 26.5189 163.116 25.9472 162.895 25.414C162.674 24.8806 162.351 24.396 161.942 23.9878C161.534 23.5795 161.049 23.2558 160.516 23.0348C159.983 22.814 159.411 22.7003 158.834 22.7003C158.257 22.7003 157.685 22.814 157.152 23.0348C156.618 23.2558 156.134 23.5795 155.726 23.9878C155.317 24.396 154.994 24.8806 154.773 25.414C154.552 25.9472 154.438 26.5189 154.438 27.0962C154.438 28.262 154.901 29.3801 155.726 30.2045C156.55 31.0288 157.668 31.4921 158.834 31.4921C160 31.4921 161.118 31.0288 161.942 30.2045C162.767 29.3801 163.23 28.262 163.23 27.0962Z" fill="#614B79"/>
<path d="M104.345 28.6361C104.322 28.6369 104.299 28.6435 104.279 28.6555C104.259 28.6672 104.242 28.6839 104.229 28.7039C104.217 28.7239 104.21 28.7466 104.209 28.7699C104.207 28.7934 104.212 28.8167 104.222 28.8381C105.446 31.4794 108.547 32.4134 110.968 30.7103C111.133 30.5949 111.376 30.3289 111.616 30.1845C111.673 30.1487 111.734 30.1433 111.797 30.168L114.467 31.2093C114.669 31.2876 114.699 31.4093 114.558 31.5742C113.031 33.3542 111.254 34.3734 109.228 34.632C101.785 35.5825 97.6918 26.0897 103.484 21.3206C108.535 17.1619 115.671 20.6464 115.898 27.1516C115.909 27.4538 115.879 27.8085 115.809 28.2155C115.797 28.2856 115.756 28.3212 115.686 28.3227L104.345 28.6361ZM112.24 25.5206C112.365 25.5177 112.403 25.4594 112.354 25.3454C110.743 21.634 105.76 22.0505 104.145 25.566C104.101 25.6621 104.132 25.7089 104.238 25.7062L112.24 25.5206Z" fill="#614B79"/>
<path d="M170.263 34.7308H167.436C167.367 34.7308 167.333 34.6966 167.333 34.6277C167.329 31.6518 167.328 28.6792 167.331 25.7102C167.332 25.2058 167.448 24.6347 167.677 23.9968C169.778 18.1638 178.978 18.0401 181.011 24.0483C181.238 24.7234 181.353 25.9122 181.356 27.6153C181.36 29.9493 181.344 32.2834 181.308 34.6174C181.307 34.6931 181.268 34.7308 181.193 34.7308H178.312C178.244 34.7308 178.209 34.6966 178.209 34.6277C178.205 32.1508 178.205 29.6772 178.209 27.2071C178.209 26.3246 178.174 24.8834 177.426 24.0359C175.857 22.2586 172.585 22.2669 171.147 24.1617C170.623 24.8559 170.378 25.7164 170.415 26.7432C170.498 29.0689 170.486 31.6951 170.378 34.6215C170.376 34.6945 170.337 34.7308 170.263 34.7308Z" fill="#614B79"/>
<path d="M182.22 26.3804C182.236 17.4444 196.012 17.3701 196.292 25.9825C196.33 27.1689 196.305 30.0582 196.216 34.6505C196.216 34.7042 196.188 34.731 196.133 34.731H193.212C193.184 34.731 193.158 34.7204 193.139 34.7015C193.119 34.6825 193.108 34.6567 193.108 34.6299C193.1 32.1448 193.099 29.6658 193.104 27.1928C193.107 26.0794 193.009 25.285 192.809 24.8093C191.636 22.0196 186.886 22.0299 185.688 24.7908C185.475 25.2829 185.369 26.2184 185.37 27.5969C185.373 29.9557 185.374 32.3118 185.372 34.665C185.372 34.6773 185.37 34.6897 185.365 34.7011C185.36 34.7124 185.353 34.7227 185.344 34.7314C185.335 34.74 185.324 34.7468 185.312 34.7514C185.301 34.7559 185.288 34.7582 185.275 34.7578L182.335 34.7227C182.27 34.7227 182.238 34.6905 182.238 34.6258C182.22 31.8782 182.214 29.1297 182.22 26.3804Z" fill="#614B79"/>
<path d="M200.799 28.6307C200.775 28.6312 200.752 28.6375 200.732 28.6493C200.711 28.6611 200.694 28.6778 200.681 28.6978C200.669 28.7178 200.662 28.7406 200.66 28.7641C200.659 28.7879 200.663 28.8114 200.673 28.8328C201.822 31.3545 204.741 32.3524 207.166 30.8761C207.442 30.7091 207.733 30.4142 208.03 30.1874C208.057 30.1672 208.089 30.1543 208.122 30.1495C208.156 30.1448 208.19 30.1487 208.222 30.1606L211.038 31.2514C211.05 31.2559 211.061 31.2633 211.07 31.273C211.079 31.2827 211.086 31.2942 211.089 31.307C211.093 31.3198 211.094 31.3332 211.092 31.3464C211.09 31.3596 211.085 31.3722 211.077 31.3833C207.793 36.072 200.521 35.7874 197.989 30.4885C195.516 25.3112 199.302 19.3586 204.943 19.5813C209.589 19.7648 212.883 23.5792 212.261 28.206C212.251 28.2844 212.206 28.3241 212.127 28.3256L200.799 28.6307ZM208.857 25.4679C207.533 21.6472 202.069 22.0369 200.63 25.5503C200.623 25.5668 200.62 25.585 200.622 25.6029C200.624 25.6209 200.63 25.638 200.641 25.6528C200.651 25.6674 200.665 25.6794 200.681 25.6874C200.697 25.6955 200.715 25.6994 200.733 25.6988L208.813 25.5318C208.821 25.5316 208.828 25.5295 208.834 25.526C208.841 25.5225 208.846 25.5173 208.85 25.5112C208.855 25.505 208.857 25.498 208.858 25.4903C208.859 25.4829 208.859 25.4751 208.857 25.4679Z" fill="#614B79"/>
<path d="M124.854 27.469C122.508 26.6071 121.601 24.7886 122.475 22.4195C123.134 20.6339 124.439 19.7055 126.39 19.6339C128.466 19.5585 130.528 19.6999 132.576 20.0587C132.625 20.0669 132.642 20.0952 132.625 20.1432L131.694 22.6669C131.672 22.7276 131.629 22.755 131.566 22.7494C130.203 22.6278 127.197 22.0525 126.056 22.7288C125.58 23.0133 125.316 23.9535 125.949 24.304C128.483 25.704 134.411 25.4051 134.407 29.5247C134.405 33.6298 130.279 34.735 126.974 34.4278C125.729 34.3111 124.476 34.2003 123.217 34.0958C123.199 34.0944 123.181 34.0884 123.165 34.0783C123.149 34.0682 123.136 34.0544 123.126 34.0381C123.117 34.0218 123.111 34.0032 123.11 33.9843C123.109 33.9653 123.113 33.9463 123.12 33.9288L124.298 31.2669C124.328 31.1968 124.38 31.1673 124.454 31.1783C125.603 31.3267 131.444 32.3783 130.865 29.935C130.735 29.3948 130.162 28.9577 129.652 28.8463C127.918 28.4657 126.318 28.0065 124.854 27.469Z" fill="#614B79"/>
</svg>
