<svg width="59" height="49" viewBox="0 0 59 49" fill="none" xmlns="http://www.w3.org/2000/svg">
<path d="M32.8825 43.7485C32.8825 45.1045 32.3437 46.4052 31.3849 47.3641C30.426 48.3231 29.1254 48.8619 27.7691 48.8619H5.1134C3.75732 48.8619 2.4567 48.3231 1.49773 47.3641C0.538761 46.4052 0 45.1045 0 43.7485V5.1134C0 3.75724 0.538761 2.45664 1.49773 1.49768C2.4567 0.538732 3.75732 0 5.1134 0H27.7691C29.1254 0 30.426 0.538732 31.3849 1.49768C32.3437 2.45664 32.8825 3.75724 32.8825 5.1134V43.7485ZM29.0206 5.98969C29.0206 5.64338 28.9524 5.30045 28.82 4.98052C28.6874 4.66056 28.4932 4.36986 28.2482 4.12497C28.0035 3.88008 27.7128 3.68584 27.3928 3.55332C27.0728 3.42078 26.7299 3.35258 26.3835 3.35258H6.50309C6.15691 3.35258 5.81381 3.42078 5.49402 3.55332C5.17402 3.68584 4.8833 3.88008 4.63835 4.12497C4.39361 4.36986 4.19938 4.66056 4.0668 4.98052C3.93423 5.30045 3.86598 5.64338 3.86598 5.98969V35.0412C3.86598 35.7406 4.14391 36.4113 4.63835 36.906C5.13299 37.4004 5.80371 37.6784 6.50309 37.6784H26.3835C27.0829 37.6784 27.7538 37.4004 28.2482 36.906C28.7429 36.4113 29.0206 35.7406 29.0206 35.0412V5.98969ZM20.9773 42.9526C20.9773 42.4594 20.7814 41.9862 20.4326 41.6375C20.0839 41.2887 19.6109 41.0928 19.1175 41.0928H14.0783C13.5852 41.0928 13.1122 41.2887 12.7633 41.6375C12.4146 41.9862 12.2186 42.4594 12.2186 42.9526V43.6041C12.2186 44.0973 12.4146 44.5705 12.7633 44.9192C13.1122 45.268 13.5852 45.4639 14.0783 45.4639H19.1175C19.6109 45.4639 20.0839 45.268 20.4326 44.9192C20.7814 44.5705 20.9773 44.0973 20.9773 43.6041V42.9526Z" fill="#614B79"/>
<path d="M48.5526 44.3813H35.7733C35.7046 44.3813 35.6702 44.3469 35.6702 44.2782V37.3751C35.6702 37.3091 35.7032 37.2755 35.7691 37.2741C38.7093 37.2493 41.3609 37.8267 42.9465 35.0638C43.332 34.3957 43.3939 33.4555 42.3588 33.4555C40.1638 33.4555 37.9685 33.4541 35.7733 33.4514C35.7046 33.4514 35.6702 33.417 35.6702 33.3483V25.6205C35.6702 25.5572 35.7025 25.525 35.7671 25.5236C40.6908 25.4108 45.6071 25.1518 50.5155 24.7463C50.6174 24.738 50.6504 24.6858 50.6145 24.5896C49.405 21.2617 48.1968 17.9339 46.9898 14.6061C46.3629 12.8782 44.3506 12.8514 42.563 12.7174C40.306 12.5497 38.0454 12.4878 35.7815 12.5318C35.7073 12.5332 35.6702 12.4968 35.6702 12.4225V9.54007C35.6702 9.47409 35.7032 9.44042 35.7691 9.43904C38.6784 9.38956 41.6331 9.42461 44.5155 9.84935C47.0269 10.2205 48.7898 10.9834 49.765 13.3359C50.5046 15.1229 51.805 18.505 53.666 23.4823C53.6922 23.5551 53.7438 23.5896 53.8207 23.5854C55.5465 23.505 58.4475 23.0473 58.4186 25.1751C58.398 26.6473 57.5403 27.6844 56.2887 28.3999C56.2755 28.4073 56.2642 28.4174 56.2549 28.4293C56.2458 28.4413 56.2392 28.4551 56.2355 28.4698C56.2318 28.4844 56.2312 28.4997 56.2337 28.5147C56.2361 28.5296 56.2415 28.5438 56.2495 28.5566C57.3671 30.303 57.6805 31.7751 57.6805 33.9999C57.6819 35.9065 57.6819 37.8129 57.6805 39.7195C57.6784 41.8164 57.4619 43.1834 55.6104 44.1339C55.5485 44.1654 55.5176 44.2164 55.5176 44.2865C55.5149 45.3009 55.5128 46.3098 55.5114 47.3133C55.5093 49.4597 52.2578 48.8679 50.8867 48.8679C49.5856 48.8679 48.7073 48.6823 48.6846 47.2122C48.671 46.3065 48.6607 45.3964 48.6537 44.4823C48.6537 44.4149 48.6201 44.3813 48.5526 44.3813ZM46.5196 35.8102C46.2454 36.6988 46.6227 37.5277 47.6928 37.3896C49.0269 37.2164 54.0784 36.6906 54.7506 35.5731C55.2104 34.804 55.1733 33.2968 54.6537 32.505C53.9774 31.4762 50.7361 32.2823 49.6392 32.6308C48.0613 33.1324 47.0215 34.1922 46.5196 35.8102Z" fill="#614B79"/>
</svg>
