<svg width="1355" height="238" viewBox="0 0 1355 238" fill="none" xmlns="http://www.w3.org/2000/svg">
<path d="M159.957 212.18C159.957 218.757 157.344 225.065 152.693 229.716C148.042 234.367 141.734 236.98 135.157 236.98H25.2766C18.6992 236.98 12.3912 234.367 7.74033 229.716C3.08942 225.065 0.476563 218.757 0.476562 212.18V24.8C0.476562 18.2226 3.08942 11.9147 7.74033 7.26375C12.3912 2.61285 18.6992 0 25.2766 0H135.157C141.734 0 148.042 2.61285 152.693 7.26375C157.344 11.9147 159.957 18.2226 159.957 24.8V212.18ZM141.227 29.05C141.227 27.3704 140.896 25.7072 140.253 24.1555C139.61 22.6037 138.668 21.1938 137.48 20.0061C136.293 18.8184 134.883 17.8763 133.331 17.2336C131.779 16.5908 130.116 16.26 128.437 16.26H32.0166C30.337 16.26 28.6738 16.5908 27.122 17.2336C25.5703 17.8763 24.1603 18.8184 22.9727 20.0061C21.785 21.1938 20.8429 22.6037 20.2001 24.1555C19.5574 25.7072 19.2266 27.3704 19.2266 29.05V169.95C19.2266 173.342 20.5741 176.595 22.9727 178.994C25.3712 181.392 28.6245 182.74 32.0166 182.74H128.437C131.829 182.74 135.082 181.392 137.48 178.994C139.879 176.595 141.227 173.342 141.227 169.95V29.05ZM102.217 208.32C102.217 205.928 101.266 203.633 99.5747 201.942C97.8831 200.25 95.5888 199.3 93.1966 199.3H68.7566C66.3643 199.3 64.07 200.25 62.3784 201.942C60.6869 203.633 59.7366 205.928 59.7366 208.32V211.48C59.7366 213.872 60.6869 216.167 62.3784 217.858C64.07 219.55 66.3643 220.5 68.7566 220.5H93.1966C95.5888 220.5 97.8831 219.55 99.5747 217.858C101.266 216.167 102.217 213.872 102.217 211.48V208.32Z" fill="#614B79"/>
<path d="M235.957 215.25H173.977C173.643 215.25 173.477 215.083 173.477 214.75V181.27C173.477 180.95 173.637 180.787 173.957 180.78C188.217 180.66 201.077 183.46 208.767 170.06C210.637 166.82 210.937 162.26 205.917 162.26C195.27 162.26 184.623 162.253 173.977 162.24C173.643 162.24 173.477 162.073 173.477 161.74V124.26C173.477 123.953 173.633 123.797 173.947 123.79C197.827 123.243 221.67 121.987 245.477 120.02C245.97 119.98 246.13 119.727 245.957 119.26C240.09 103.12 234.23 86.98 228.377 70.84C225.337 62.46 215.577 62.33 206.907 61.68C195.96 60.8667 184.997 60.5667 174.017 60.78C173.657 60.7867 173.477 60.61 173.477 60.25V46.27C173.477 45.95 173.637 45.7867 173.957 45.78C188.067 45.54 202.397 45.71 216.377 47.77C228.557 49.57 237.107 53.27 241.837 64.68C245.423 73.3467 251.73 89.7501 260.757 113.89C260.883 114.243 261.133 114.41 261.507 114.39C269.877 114 283.947 111.78 283.807 122.1C283.707 129.24 279.547 134.27 273.477 137.74C273.413 137.776 273.357 137.825 273.313 137.883C273.268 137.941 273.236 138.008 273.218 138.079C273.201 138.15 273.197 138.224 273.209 138.297C273.221 138.369 273.247 138.438 273.287 138.5C278.707 146.97 280.227 154.11 280.227 164.9C280.233 174.147 280.233 183.393 280.227 192.64C280.217 202.81 279.167 209.44 270.187 214.05C269.887 214.203 269.737 214.45 269.737 214.79C269.723 219.71 269.713 224.603 269.707 229.47C269.697 239.88 253.927 237.01 247.277 237.01C240.967 237.01 236.707 236.11 236.597 228.98C236.53 224.587 236.48 220.173 236.447 215.74C236.447 215.413 236.283 215.25 235.957 215.25ZM226.097 173.68C224.767 177.99 226.597 182.01 231.787 181.34C238.257 180.5 262.757 177.95 266.017 172.53C268.247 168.8 268.067 161.49 265.547 157.65C262.267 152.66 246.547 156.57 241.227 158.26C233.573 160.693 228.53 165.833 226.097 173.68Z" fill="#614B79"/>
<path d="M409.939 76.2237C417.536 76.2237 423.694 70.0653 423.694 62.4685C423.694 54.8717 417.536 48.7134 409.939 48.7134C402.342 48.7134 396.184 54.8717 396.184 62.4685C396.184 70.0653 402.342 76.2237 409.939 76.2237Z" fill="#614B79"/>
<path d="M511.279 93.5707L511.196 61.0762C511.196 60.8192 511.264 60.5674 511.394 60.347C511.524 60.1266 511.71 59.9456 511.934 59.8232L531.703 49.3258C531.805 49.2721 531.918 49.2459 532.033 49.2499C532.147 49.2539 532.259 49.2879 532.356 49.3485C532.453 49.4091 532.533 49.4943 532.587 49.5953C532.641 49.6964 532.668 49.8099 532.664 49.9245C531.244 78.6739 532.72 107.757 532.65 136.465C532.613 151.965 526.835 164.76 515.317 174.849C475.249 209.933 414.659 168.723 433.134 118.84C444.898 87.0551 481.904 76.0286 509.971 94.2807C510.843 94.8469 511.279 94.6102 511.279 93.5707ZM510.82 136.604C510.82 128.732 507.693 121.182 502.126 115.616C496.56 110.049 489.01 106.922 481.138 106.922C477.24 106.922 473.38 107.69 469.779 109.182C466.178 110.673 462.906 112.86 460.149 115.616C457.393 118.372 455.207 121.644 453.715 125.245C452.223 128.847 451.456 132.706 451.456 136.604C451.456 144.476 454.583 152.026 460.149 157.593C465.716 163.159 473.266 166.286 481.138 166.286C489.01 166.286 496.56 163.159 502.126 157.593C507.693 152.026 510.82 144.476 510.82 136.604Z" fill="#614B79"/>
<path d="M334.941 188.59C334.31 188.59 333.995 188.275 333.995 187.643C333.818 169.869 333.767 151.877 333.842 133.667C333.967 103.804 360.433 82.7812 389.517 84.2291C389.707 84.2363 389.888 84.3173 390.02 84.4549C390.153 84.5925 390.227 84.776 390.227 84.967V106.825C390.227 107.261 390.009 107.475 389.572 107.465C370.596 107.034 355.63 119.466 355.755 138.957C355.857 155.219 356.01 171.48 356.215 187.741C356.224 188.326 355.936 188.618 355.351 188.618L334.941 188.59Z" fill="#614B79"/>
<path d="M1299.12 188.659C1298.56 188.669 1298.27 188.39 1298.27 187.824C1298.36 173.141 1298.33 158.253 1298.19 143.162C1298.11 132.455 1297.94 123.907 1302.47 114.44C1312.22 94.0392 1329.11 83.9503 1353.14 84.173C1353.94 84.1823 1354.34 84.5814 1354.34 85.3703V106.574C1354.34 107.205 1354.02 107.525 1353.39 107.535C1348.65 107.562 1343.81 107.646 1339.53 109.498C1326.13 115.271 1319.58 125.652 1319.85 140.642C1320.14 156.207 1320.28 171.99 1320.27 187.991C1320.27 188.27 1320.13 188.409 1319.85 188.409L1299.12 188.659Z" fill="#614B79"/>
<path d="M422.247 85.2871H398.245C398.045 85.2871 397.883 85.4492 397.883 85.6491V187.95C397.883 188.15 398.045 188.312 398.245 188.312H422.247C422.447 188.312 422.609 188.15 422.609 187.95V85.6491C422.609 85.4492 422.447 85.2871 422.247 85.2871Z" fill="#614B79"/>
<path d="M789.362 174.82C766.363 154.786 766.488 119.354 788.652 98.7773C818.223 71.3226 862.802 87.9597 873.258 125.188C873.286 125.29 873.29 125.398 873.271 125.502C873.251 125.606 873.208 125.704 873.144 125.788C873.08 125.872 872.998 125.939 872.905 125.985C872.811 126.031 872.708 126.053 872.603 126.051L851.762 125.647C851.584 125.648 851.409 125.596 851.259 125.497C851.108 125.398 850.988 125.257 850.913 125.09C839.928 101.826 809.494 100.309 797.201 122.793C788.917 137.954 795.725 157.139 811.29 163.878C827.12 170.741 843.603 163.697 850.899 147.992C851.131 147.491 851.525 147.241 852.082 147.241H872.617C872.722 147.241 872.825 147.266 872.919 147.313C873.013 147.359 873.094 147.427 873.158 147.511C873.221 147.594 873.264 147.691 873.284 147.794C873.304 147.897 873.299 148.003 873.272 148.104C863.122 185.805 819.56 201.134 789.362 174.82Z" fill="#614B79"/>
<path d="M959.966 178.511C943.881 189.054 927.211 190.688 909.957 183.411C889.589 174.835 876.906 151.279 879.955 129.532C887.445 76.2656 960.871 69.0817 979.429 119.55C982.715 128.46 982.478 139.278 982.227 148.981C981.912 161.493 981.824 174.004 981.963 186.516C981.963 187.017 981.712 187.268 981.211 187.268H961.386C960.922 187.268 960.69 187.036 960.69 186.571V178.914C960.69 178.329 960.448 178.195 959.966 178.511ZM960.495 136.41C960.495 132.512 959.727 128.652 958.235 125.051C956.744 121.45 954.557 118.177 951.801 115.421C949.045 112.665 945.773 110.479 942.171 108.987C938.57 107.495 934.71 106.727 930.813 106.727C926.915 106.727 923.055 107.495 919.454 108.987C915.852 110.479 912.58 112.665 909.824 115.421C907.068 118.177 904.881 121.45 903.39 125.051C901.898 128.652 901.13 132.512 901.13 136.41C901.13 144.282 904.258 151.832 909.824 157.398C915.391 162.965 922.94 166.092 930.813 166.092C938.685 166.092 946.235 162.965 951.801 157.398C957.368 151.832 960.495 144.282 960.495 136.41Z" fill="#614B79"/>
<path d="M562.891 146.809C562.733 146.815 562.578 146.86 562.442 146.94C562.305 147.02 562.19 147.133 562.108 147.268C562.025 147.403 561.977 147.556 561.968 147.714C561.959 147.872 561.989 148.03 562.056 148.174C570.325 166.008 591.265 172.315 607.609 160.815C608.723 160.035 610.366 158.239 611.981 157.265C612.371 157.024 612.779 156.986 613.206 157.153L631.235 164.184C632.6 164.713 632.804 165.535 631.848 166.648C621.536 178.668 609.54 185.55 595.859 187.295C545.6 193.713 517.964 129.615 557.071 97.4132C591.181 69.3321 639.366 92.8606 640.897 136.785C640.971 138.827 640.772 141.222 640.299 143.969C640.215 144.443 639.937 144.684 639.463 144.693L562.891 146.809ZM616.199 125.773C617.044 125.754 617.299 125.36 616.965 124.589C606.092 99.5294 572.442 102.342 561.541 126.079C561.244 126.729 561.452 127.044 562.167 127.026L616.199 125.773Z" fill="#614B79"/>
<path d="M1007.98 187.963H988.897C988.433 187.963 988.201 187.731 988.201 187.267C988.173 167.173 988.168 147.102 988.187 127.054C988.196 123.647 988.976 119.791 990.526 115.484C1004.71 76.0983 1066.83 75.263 1080.56 115.832C1082.09 120.39 1082.87 128.418 1082.89 139.918C1082.91 155.678 1082.81 171.438 1082.57 187.198C1082.56 187.708 1082.3 187.963 1081.79 187.963H1062.34C1061.87 187.963 1061.64 187.731 1061.64 187.267C1061.61 170.542 1061.61 153.84 1061.64 137.161C1061.64 131.203 1061.4 121.471 1056.35 115.749C1045.76 103.748 1023.66 103.804 1013.96 116.598C1010.41 121.285 1008.76 127.095 1009.01 134.029C1009.57 149.733 1009.49 167.465 1008.76 187.226C1008.75 187.717 1008.49 187.963 1007.98 187.963Z" fill="#614B79"/>
<path d="M1088.72 131.578C1088.83 71.2391 1181.85 70.7379 1183.74 128.891C1184 136.901 1183.83 156.411 1183.22 187.42C1183.22 187.782 1183.04 187.963 1182.67 187.963H1162.94C1162.75 187.963 1162.58 187.891 1162.45 187.763C1162.32 187.635 1162.24 187.462 1162.24 187.281C1162.19 170.5 1162.18 153.761 1162.22 137.063C1162.23 129.545 1161.57 124.181 1160.22 120.969C1152.3 102.133 1120.23 102.202 1112.14 120.844C1110.7 124.167 1109.98 130.483 1109.99 139.792C1110.01 155.719 1110.02 171.628 1110.01 187.518C1110.01 187.601 1109.99 187.684 1109.96 187.761C1109.92 187.838 1109.88 187.907 1109.81 187.966C1109.75 188.024 1109.68 188.07 1109.6 188.1C1109.52 188.131 1109.44 188.146 1109.35 188.144L1089.5 187.907C1089.06 187.907 1088.85 187.689 1088.85 187.253C1088.72 168.699 1088.68 150.141 1088.72 131.578Z" fill="#614B79"/>
<path d="M1214.17 146.768C1214.01 146.771 1213.86 146.815 1213.72 146.894C1213.58 146.973 1213.46 147.085 1213.38 147.22C1213.29 147.356 1213.24 147.51 1213.23 147.669C1213.22 147.828 1213.25 147.987 1213.32 148.132C1221.08 165.159 1240.79 171.897 1257.16 161.929C1259.03 160.801 1260.99 158.81 1263 157.279C1263.18 157.143 1263.39 157.055 1263.62 157.023C1263.85 156.992 1264.08 157.017 1264.29 157.098L1283.31 164.463C1283.39 164.494 1283.47 164.545 1283.53 164.61C1283.59 164.675 1283.63 164.753 1283.66 164.839C1283.68 164.925 1283.69 165.016 1283.67 165.105C1283.66 165.194 1283.62 165.279 1283.57 165.354C1261.4 197.013 1212.29 195.092 1195.2 159.312C1178.5 124.353 1204.06 84.1594 1242.15 85.663C1273.52 86.9021 1295.77 112.658 1291.56 143.9C1291.5 144.429 1291.2 144.698 1290.66 144.707L1214.17 146.768ZM1268.58 125.411C1259.64 99.6131 1222.75 102.244 1213.03 125.968C1212.98 126.08 1212.96 126.202 1212.98 126.323C1212.99 126.444 1213.03 126.56 1213.1 126.66C1213.17 126.76 1213.27 126.84 1213.37 126.895C1213.48 126.949 1213.6 126.975 1213.73 126.97L1268.29 125.843C1268.34 125.841 1268.38 125.828 1268.43 125.804C1268.47 125.78 1268.51 125.746 1268.54 125.704C1268.57 125.662 1268.58 125.614 1268.59 125.563C1268.6 125.512 1268.59 125.46 1268.58 125.411Z" fill="#614B79"/>
<path d="M701.374 138.929C685.53 133.11 679.405 120.83 685.308 104.834C689.753 92.7772 698.566 86.5075 711.746 86.0249C725.761 85.5144 739.683 86.4704 753.513 88.8929C753.847 88.9485 753.958 89.1388 753.847 89.4637L747.554 106.504C747.405 106.913 747.118 107.099 746.691 107.061C737.488 106.24 717.19 102.356 709.491 106.922C706.275 108.843 704.492 115.192 708.767 117.559C725.877 127.012 765.903 124.993 765.876 152.81C765.862 180.529 738.003 187.991 715.686 185.917C707.277 185.128 698.821 184.381 690.32 183.675C690.194 183.665 690.072 183.624 689.965 183.556C689.858 183.489 689.769 183.396 689.705 183.285C689.641 183.175 689.604 183.05 689.597 182.922C689.59 182.794 689.613 182.665 689.665 182.548L697.615 164.574C697.819 164.101 698.172 163.901 698.673 163.975C706.428 164.978 745.869 172.078 741.957 155.58C741.08 151.933 737.21 148.981 733.771 148.229C722.058 145.658 711.259 142.558 701.374 138.929Z" fill="#614B79"/>
</svg>
