<svg width="20" height="20" viewBox="0 0 20 20" fill="none" xmlns="http://www.w3.org/2000/svg">
<g id="Layer_1" clip-path="url(#clip0_129_950)">
<path id="Vector" d="M9.56333 12.5C9.34232 12.5 9.13036 12.5878 8.97408 12.7441C8.8178 12.9004 8.73 13.1123 8.73 13.3333V15.8333C8.73 16.4964 8.46661 17.1323 7.99777 17.6011C7.52893 18.0699 6.89304 18.3333 6.23 18.3333H4.16667C3.50363 18.3333 2.86774 18.0699 2.3989 17.6011C1.93006 17.1323 1.66667 16.4964 1.66667 15.8333V4.16667C1.66667 3.50363 1.93006 2.86774 2.3989 2.3989C2.86774 1.93006 3.50363 1.66667 4.16667 1.66667H6.23C6.89304 1.66667 7.52893 1.93006 7.99777 2.3989C8.46661 2.86774 8.73 3.50363 8.73 4.16667V6.66667C8.73 6.88768 8.8178 7.09964 8.97408 7.25592C9.13036 7.4122 9.34232 7.5 9.56333 7.5C9.78435 7.5 9.99631 7.4122 10.1526 7.25592C10.3089 7.09964 10.3967 6.88768 10.3967 6.66667V4.16667C10.3953 3.062 9.95593 2.00296 9.17482 1.22185C8.3937 0.440735 7.33466 0.00132321 6.23 0H4.16667C3.062 0.00132321 2.00296 0.440735 1.22185 1.22185C0.440735 2.00296 0.00132321 3.062 0 4.16667L0 15.8333C0.00132321 16.938 0.440735 17.997 1.22185 18.7782C2.00296 19.5593 3.062 19.9987 4.16667 20H6.23C7.33466 19.9987 8.3937 19.5593 9.17482 18.7782C9.95593 17.997 10.3953 16.938 10.3967 15.8333V13.3333C10.3967 13.1123 10.3089 12.9004 10.1526 12.7441C9.99631 12.5878 9.78435 12.5 9.56333 12.5Z" fill="#000"/>
<path id="Vector_2" d="M19.0562 8.23245L15.2345 4.41078C15.1576 4.33119 15.0657 4.2677 14.964 4.22403C14.8623 4.18035 14.753 4.15737 14.6423 4.1564C14.5317 4.15544 14.4219 4.17653 14.3195 4.21843C14.2171 4.26033 14.1241 4.32221 14.0458 4.40045C13.9676 4.47869 13.9057 4.57174 13.8638 4.67415C13.8219 4.77656 13.8008 4.8863 13.8018 4.99695C13.8027 5.1076 13.8257 5.21695 13.8694 5.31862C13.9131 5.42029 13.9766 5.51224 14.0562 5.58911L17.6087 9.14161L5.00033 9.16661C4.77931 9.16661 4.56735 9.25441 4.41107 9.41069C4.25479 9.56697 4.16699 9.77893 4.16699 9.99995C4.16699 10.221 4.25479 10.4329 4.41107 10.5892C4.56735 10.7455 4.77931 10.8333 5.00033 10.8333L17.657 10.8083L14.0545 14.4108C13.9749 14.4876 13.9114 14.5796 13.8677 14.6813C13.8241 14.7829 13.8011 14.8923 13.8001 15.0029C13.7992 15.1136 13.8202 15.2233 13.8621 15.3257C13.904 15.4282 13.9659 15.5212 14.0442 15.5994C14.1224 15.6777 14.2154 15.7396 14.3179 15.7815C14.4203 15.8234 14.53 15.8444 14.6407 15.8435C14.7513 15.8425 14.8607 15.8195 14.9623 15.7759C15.064 15.7322 15.156 15.6687 15.2328 15.5891L19.0545 11.7674C19.5234 11.2988 19.787 10.6632 19.7873 10.0003C19.7876 9.33738 19.5246 8.70149 19.0562 8.23245Z" fill="#000"/>
</g>
<defs>
<clipPath id="clip0_129_950">
<rect width="20" height="20" fill="white"/>
</clipPath>
</defs>
</svg>
