<svg width="734" height="388" viewBox="0 0 734 388" fill="none" xmlns="http://www.w3.org/2000/svg">
<path d="M384.802 212.18C384.802 218.757 382.189 225.065 377.539 229.716C372.888 234.367 366.58 236.98 360.002 236.98H250.122C243.545 236.98 237.237 234.367 232.586 229.716C227.935 225.065 225.322 218.757 225.322 212.18V24.8C225.322 18.2226 227.935 11.9147 232.586 7.26375C237.237 2.61285 243.545 0 250.122 0H360.002C366.58 0 372.888 2.61285 377.539 7.26375C382.189 11.9147 384.802 18.2226 384.802 24.8V212.18ZM366.072 29.05C366.072 27.3704 365.741 25.7072 365.099 24.1555C364.456 22.6037 363.514 21.1938 362.326 20.0061C361.139 18.8184 359.729 17.8763 358.177 17.2336C356.625 16.5908 354.962 16.26 353.282 16.26H256.862C255.183 16.26 253.519 16.5908 251.968 17.2336C250.416 17.8763 249.006 18.8184 247.818 20.0061C246.631 21.1938 245.689 22.6037 245.046 24.1555C244.403 25.7072 244.072 27.3704 244.072 29.05V169.95C244.072 173.342 245.42 176.595 247.818 178.994C250.217 181.392 253.47 182.74 256.862 182.74H353.282C356.674 182.74 359.928 181.392 362.326 178.994C364.725 176.595 366.072 173.342 366.072 169.95V29.05ZM327.062 208.32C327.062 205.928 326.112 203.633 324.42 201.942C322.729 200.25 320.435 199.3 318.042 199.3H293.602C291.21 199.3 288.916 200.25 287.224 201.942C285.533 203.633 284.582 205.928 284.582 208.32V211.48C284.582 213.872 285.533 216.167 287.224 217.858C288.916 219.55 291.21 220.5 293.602 220.5H318.042C320.435 220.5 322.729 219.55 324.42 217.858C326.112 216.167 327.062 213.872 327.062 211.48V208.32Z" fill="#614B79"/>
<path d="M460.802 215.25H398.822C398.489 215.25 398.322 215.083 398.322 214.75V181.27C398.322 180.95 398.482 180.787 398.802 180.78C413.062 180.66 425.922 183.46 433.612 170.06C435.482 166.82 435.782 162.26 430.762 162.26C420.116 162.26 409.469 162.253 398.822 162.24C398.489 162.24 398.322 162.073 398.322 161.74V124.26C398.322 123.953 398.479 123.797 398.792 123.79C422.672 123.243 446.516 121.987 470.322 120.02C470.816 119.98 470.976 119.727 470.802 119.26C464.936 103.12 459.076 86.98 453.222 70.84C450.182 62.46 440.422 62.33 431.752 61.68C420.806 60.8667 409.842 60.5667 398.862 60.78C398.502 60.7867 398.322 60.61 398.322 60.25V46.27C398.322 45.95 398.482 45.7867 398.802 45.78C412.912 45.54 427.242 45.71 441.222 47.77C453.402 49.57 461.952 53.27 466.682 64.68C470.269 73.3467 476.576 89.7501 485.602 113.89C485.729 114.243 485.979 114.41 486.352 114.39C494.722 114 508.792 111.78 508.652 122.1C508.552 129.24 504.392 134.27 498.322 137.74C498.258 137.776 498.203 137.825 498.158 137.883C498.114 137.941 498.082 138.008 498.064 138.079C498.046 138.15 498.043 138.224 498.055 138.297C498.067 138.369 498.093 138.438 498.132 138.5C503.552 146.97 505.072 154.11 505.072 164.9C505.079 174.147 505.079 183.393 505.072 192.64C505.062 202.81 504.012 209.44 495.032 214.05C494.732 214.203 494.582 214.45 494.582 214.79C494.569 219.71 494.559 224.603 494.552 229.47C494.542 239.88 478.772 237.01 472.122 237.01C465.812 237.01 461.552 236.11 461.442 228.98C461.376 224.587 461.326 220.173 461.292 215.74C461.292 215.413 461.129 215.25 460.802 215.25ZM450.942 173.68C449.612 177.99 451.442 182.01 456.632 181.34C463.102 180.5 487.602 177.95 490.862 172.53C493.092 168.8 492.912 161.49 490.392 157.65C487.112 152.66 471.392 156.57 466.072 158.26C458.419 160.693 453.376 165.833 450.942 173.68Z" fill="#614B79"/>
<path d="M55.1593 307.133C60.6159 307.133 65.0393 302.709 65.0393 297.253C65.0393 291.796 60.6159 287.373 55.1593 287.373C49.7027 287.373 45.2793 291.796 45.2793 297.253C45.2793 302.709 49.7027 307.133 55.1593 307.133Z" fill="#614B79"/>
<path d="M127.95 319.593L127.89 296.253C127.89 296.068 127.939 295.887 128.032 295.729C128.125 295.571 128.259 295.441 128.42 295.353L142.62 287.813C142.692 287.774 142.774 287.755 142.856 287.758C142.939 287.761 143.019 287.785 143.089 287.829C143.158 287.872 143.216 287.934 143.254 288.006C143.293 288.079 143.312 288.16 143.31 288.243C142.29 308.893 143.35 329.783 143.3 350.403C143.273 361.536 139.123 370.726 130.85 377.973C102.07 403.173 58.5497 373.573 71.8197 337.743C80.2697 314.913 106.85 306.993 127.01 320.103C127.636 320.509 127.95 320.339 127.95 319.593ZM127.62 350.503C127.62 344.848 125.374 339.425 121.375 335.427C117.377 331.429 111.954 329.183 106.3 329.183C103.5 329.183 100.728 329.734 98.1409 330.806C95.5542 331.877 93.204 333.447 91.2242 335.427C89.2445 337.407 87.674 339.757 86.6026 342.344C85.5312 344.93 84.9797 347.703 84.9797 350.503C84.9797 356.157 87.2259 361.58 91.2242 365.578C95.2225 369.576 100.645 371.823 106.3 371.823C111.954 371.823 117.377 369.576 121.375 365.578C125.374 361.58 127.62 356.157 127.62 350.503Z" fill="#614B79"/>
<path d="M1.29027 387.843C0.836934 387.843 0.610267 387.616 0.610267 387.163C0.4836 374.396 0.446933 361.473 0.500266 348.393C0.590266 326.943 19.6003 311.843 40.4903 312.883C40.6273 312.888 40.7571 312.946 40.8522 313.045C40.9473 313.144 41.0004 313.275 41.0003 313.413V329.113C41.0003 329.426 40.8436 329.579 40.5303 329.573C26.9003 329.263 16.1503 338.193 16.2403 352.193C16.3136 363.873 16.4236 375.553 16.5703 387.233C16.5769 387.653 16.3703 387.863 15.9503 387.863L1.29027 387.843Z" fill="#614B79"/>
<path d="M693.84 387.892C693.433 387.899 693.23 387.699 693.23 387.292C693.29 376.746 693.27 366.052 693.17 355.212C693.11 347.522 692.99 341.382 696.24 334.582C703.247 319.929 715.38 312.682 732.64 312.842C733.213 312.849 733.5 313.136 733.5 313.702V328.932C733.5 329.386 733.273 329.616 732.82 329.622C729.41 329.642 725.94 329.702 722.86 331.032C713.24 335.179 708.53 342.636 708.73 353.402C708.937 364.582 709.037 375.919 709.03 387.412C709.03 387.612 708.93 387.712 708.73 387.712L693.84 387.892Z" fill="#614B79"/>
<path d="M64 313.643H46.76C46.6164 313.643 46.5 313.759 46.5 313.903V387.383C46.5 387.526 46.6164 387.643 46.76 387.643H64C64.1436 387.643 64.26 387.526 64.26 387.383V313.903C64.26 313.759 64.1436 313.643 64 313.643Z" fill="#614B79"/>
<path d="M327.69 377.952C311.17 363.562 311.26 338.112 327.18 323.332C348.42 303.612 380.44 315.562 387.95 342.302C387.97 342.376 387.974 342.453 387.959 342.528C387.945 342.603 387.914 342.673 387.868 342.734C387.823 342.794 387.764 342.842 387.696 342.875C387.629 342.908 387.555 342.924 387.48 342.922L372.51 342.632C372.382 342.633 372.257 342.595 372.149 342.524C372.04 342.453 371.954 342.352 371.9 342.232C364.01 325.522 342.15 324.432 333.32 340.582C327.37 351.472 332.26 365.252 343.44 370.092C354.81 375.022 366.65 369.962 371.89 358.682C372.057 358.322 372.34 358.142 372.74 358.142H387.49C387.565 358.143 387.639 358.16 387.707 358.194C387.774 358.228 387.833 358.276 387.878 358.336C387.924 358.396 387.955 358.466 387.969 358.54C387.983 358.614 387.98 358.69 387.96 358.762C380.67 385.842 349.38 396.852 327.69 377.952Z" fill="#614B79"/>
<path d="M450.229 380.603C438.676 388.176 426.703 389.349 414.309 384.123C399.679 377.963 390.569 361.043 392.759 345.423C398.139 307.163 450.879 302.003 464.209 338.253C466.569 344.653 466.399 352.423 466.219 359.393C465.993 368.379 465.929 377.366 466.029 386.353C466.029 386.713 465.849 386.893 465.489 386.893H451.249C450.916 386.893 450.749 386.726 450.749 386.393V380.893C450.749 380.473 450.576 380.376 450.229 380.603ZM450.609 350.363C450.609 347.563 450.058 344.79 448.986 342.204C447.915 339.617 446.345 337.267 444.365 335.287C442.385 333.307 440.035 331.737 437.448 330.665C434.861 329.594 432.089 329.043 429.289 329.043C426.49 329.043 423.717 329.594 421.13 330.665C418.544 331.737 416.194 333.307 414.214 335.287C412.234 337.267 410.664 339.617 409.592 342.204C408.521 344.79 407.969 347.563 407.969 350.363C407.969 356.017 410.216 361.44 414.214 365.438C418.212 369.436 423.635 371.683 429.289 371.683C434.944 371.683 440.367 369.436 444.365 365.438C448.363 361.44 450.609 356.017 450.609 350.363Z" fill="#614B79"/>
<path d="M165.021 357.833C164.907 357.837 164.796 357.869 164.698 357.927C164.6 357.984 164.518 358.065 164.458 358.162C164.399 358.259 164.364 358.369 164.358 358.482C164.351 358.596 164.373 358.709 164.421 358.813C170.361 371.623 185.401 376.153 197.141 367.893C197.941 367.333 199.121 366.043 200.281 365.343C200.561 365.169 200.854 365.143 201.161 365.263L214.111 370.313C215.091 370.693 215.237 371.283 214.551 372.083C207.144 380.716 198.528 385.659 188.701 386.913C152.601 391.523 132.751 345.483 160.841 322.353C185.341 302.183 219.951 319.083 221.051 350.633C221.104 352.099 220.961 353.819 220.621 355.793C220.561 356.133 220.361 356.306 220.021 356.313L165.021 357.833ZM203.311 342.723C203.917 342.709 204.101 342.426 203.861 341.873C196.051 323.873 171.881 325.893 164.051 342.943C163.837 343.409 163.987 343.636 164.501 343.623L203.311 342.723Z" fill="#614B79"/>
<path d="M484.72 387.392H471.01C470.677 387.392 470.51 387.226 470.51 386.892C470.49 372.459 470.487 358.042 470.5 343.642C470.507 341.196 471.067 338.426 472.18 335.332C482.37 307.042 526.99 306.442 536.85 335.582C537.95 338.856 538.507 344.622 538.52 352.882C538.54 364.202 538.463 375.522 538.29 386.842C538.283 387.209 538.097 387.392 537.73 387.392H523.76C523.427 387.392 523.26 387.226 523.26 386.892C523.24 374.879 523.24 362.882 523.26 350.902C523.26 346.622 523.09 339.632 519.46 335.522C511.85 326.902 495.98 326.942 489.01 336.132C486.464 339.499 485.28 343.672 485.46 348.652C485.86 359.932 485.8 372.669 485.28 386.862C485.267 387.216 485.08 387.392 484.72 387.392Z" fill="#614B79"/>
<path d="M542.711 346.892C542.791 303.552 609.601 303.192 610.961 344.962C611.147 350.716 611.024 364.729 610.591 387.002C610.591 387.262 610.457 387.392 610.191 387.392H596.021C595.888 387.392 595.761 387.341 595.667 387.249C595.573 387.157 595.521 387.032 595.521 386.902C595.481 374.849 595.474 362.826 595.501 350.832C595.514 345.432 595.037 341.579 594.071 339.272C588.381 325.742 565.341 325.792 559.531 339.182C558.497 341.569 557.984 346.106 557.991 352.792C558.004 364.232 558.007 375.659 558.001 387.072C558.001 387.132 557.988 387.192 557.965 387.247C557.941 387.302 557.906 387.352 557.862 387.394C557.819 387.436 557.767 387.469 557.71 387.491C557.653 387.513 557.592 387.524 557.531 387.522L543.271 387.352C542.957 387.352 542.801 387.196 542.801 386.882C542.714 373.556 542.684 360.226 542.711 346.892Z" fill="#614B79"/>
<path d="M632.82 357.803C632.706 357.805 632.594 357.836 632.494 357.893C632.395 357.95 632.311 358.031 632.25 358.128C632.19 358.225 632.155 358.336 632.148 358.45C632.141 358.565 632.162 358.679 632.21 358.783C637.78 371.013 651.94 375.853 663.7 368.693C665.04 367.883 666.45 366.453 667.89 365.353C668.022 365.255 668.176 365.192 668.339 365.169C668.501 365.146 668.667 365.165 668.82 365.223L682.48 370.513C682.54 370.535 682.593 370.571 682.636 370.618C682.679 370.665 682.711 370.721 682.729 370.783C682.748 370.845 682.752 370.91 682.742 370.974C682.731 371.038 682.707 371.099 682.67 371.153C666.74 393.893 631.47 392.513 619.19 366.813C607.2 341.703 625.56 312.833 652.92 313.913C675.45 314.803 691.43 333.303 688.41 355.743C688.364 356.123 688.147 356.316 687.76 356.323L632.82 357.803ZM671.9 342.463C665.48 323.933 638.98 325.823 632 342.863C631.967 342.943 631.954 343.031 631.963 343.118C631.972 343.205 632.003 343.288 632.053 343.36C632.103 343.431 632.17 343.489 632.248 343.528C632.326 343.567 632.413 343.586 632.5 343.583L671.69 342.773C671.726 342.772 671.76 342.762 671.792 342.745C671.823 342.728 671.85 342.703 671.87 342.673C671.89 342.643 671.904 342.609 671.909 342.572C671.914 342.536 671.911 342.498 671.9 342.463Z" fill="#614B79"/>
<path d="M264.489 352.172C253.109 347.992 248.709 339.172 252.949 327.682C256.143 319.022 262.473 314.519 271.939 314.172C282.006 313.806 292.006 314.492 301.939 316.232C302.179 316.272 302.259 316.409 302.179 316.642L297.659 328.882C297.553 329.176 297.346 329.309 297.039 329.282C290.429 328.692 275.849 325.902 270.319 329.182C268.009 330.562 266.729 335.122 269.799 336.822C282.089 343.612 310.839 342.162 310.819 362.142C310.809 382.052 290.799 387.412 274.769 385.922C268.729 385.356 262.656 384.819 256.549 384.312C256.459 384.305 256.371 384.276 256.295 384.227C256.218 384.178 256.154 384.111 256.108 384.032C256.062 383.953 256.035 383.863 256.03 383.771C256.025 383.679 256.042 383.587 256.079 383.502L261.789 370.592C261.936 370.252 262.189 370.109 262.549 370.162C268.119 370.882 296.449 375.982 293.639 364.132C293.009 361.512 290.229 359.392 287.759 358.852C279.346 357.006 271.589 354.779 264.489 352.172Z" fill="#614B79"/>
</svg>
