<svg width="24" height="24" viewBox="0 0 24 24" fill="none" xmlns="http://www.w3.org/2000/svg">
<path d="M11.5935 22.6248H5.33372C3.63253 22.6248 2.25223 21.2394 2.25223 19.5433V4.45671C2.25223 2.75552 3.63763 1.37521 5.33372 1.37521H11.6954C12.0774 1.37521 12.383 1.06961 12.383 0.687606C12.383 0.305603 12.0774 0 11.6954 0H5.33372C2.87362 0 0.877014 2.0017 0.877014 4.45671V19.5433C0.877014 22.0034 2.87871 24 5.33372 24H11.5935C11.9755 24 12.2811 23.6944 12.2811 23.3124C12.2811 22.9304 11.9704 22.6248 11.5935 22.6248Z" fill="#777777"/>
<path d="M22.9212 11.5159L18.5511 7.14582C18.2811 6.87587 17.8482 6.87587 17.5782 7.14582C17.3083 7.41577 17.3083 7.84871 17.5782 8.11866L20.7769 11.3173H6.82609C6.44409 11.3173 6.13849 11.6229 6.13849 12.0049C6.13849 12.3869 6.44409 12.6925 6.82609 12.6925H20.7769L17.5782 15.8912C17.3083 16.1611 17.3083 16.594 17.5782 16.864C17.7106 16.9964 17.8889 17.0677 18.0621 17.0677C18.2353 17.0677 18.4135 17.0015 18.546 16.864L22.9161 12.4939C23.1911 12.2188 23.1911 11.7808 22.9212 11.5159Z" fill="#777777"/>
</svg>
