<svg width="24" height="24" viewBox="0 0 24 24" fill="none" xmlns="http://www.w3.org/2000/svg">
<path d="M5.625 1.875H7.875V2.625H5.625V1.875ZM6.75 19.875C6.12975 19.875 5.625 20.3797 5.625 21C5.625 21.6203 6.12975 22.125 6.75 22.125C7.37025 22.125 7.875 21.6203 7.875 21C7.875 20.3797 7.37025 19.875 6.75 19.875ZM6.75 21.375C6.65345 21.3707 6.56228 21.3293 6.49548 21.2594C6.42868 21.1896 6.3914 21.0967 6.3914 21C6.3914 20.9033 6.42868 20.8104 6.49548 20.7406C6.56228 20.6707 6.65345 20.6293 6.75 20.625C6.84655 20.6293 6.93772 20.6707 7.00452 20.7406C7.07132 20.8104 7.1086 20.9033 7.1086 21C7.1086 21.0967 7.07132 21.1896 7.00452 21.2594C6.93772 21.3293 6.84655 21.3707 6.75 21.375ZM5.67038 7.01513C5.25788 6.60225 4.70887 6.375 4.125 6.375C3.54112 6.375 2.99213 6.60225 2.57963 7.01513L2.51512 7.07963C2.10665 7.49041 1.87664 8.0457 1.875 8.625C1.875 9.19462 2.04975 9.74062 2.38087 10.2034L3.81975 12.2179C3.85445 12.2664 3.90023 12.306 3.95329 12.3333C4.00634 12.3606 4.06515 12.3748 4.12481 12.3748C4.18448 12.3748 4.24328 12.3606 4.29634 12.3333C4.3494 12.306 4.39518 12.2664 4.42987 12.2179L5.86875 10.2034C6.19914 9.74351 6.37627 9.19125 6.375 8.625C6.37336 8.0457 6.14335 7.49041 5.73488 7.07963L5.67038 7.01513ZM5.25863 9.76763L4.125 11.3546L2.991 9.76763C2.75218 9.43457 2.62414 9.03484 2.625 8.625C2.625 8.247 2.77838 7.87725 3.04538 7.60987L3.10988 7.54537C3.381 7.27425 3.74175 7.125 4.125 7.125C4.50825 7.125 4.869 7.27425 5.14012 7.54537L5.20462 7.60987C5.47282 7.87978 5.62385 8.2445 5.625 8.625C5.625 9.0375 5.49862 9.432 5.25863 9.76763ZM22.9849 17.5796L22.9204 17.5151C22.5079 17.1023 21.9589 16.875 21.375 16.875C20.7911 16.875 20.2421 17.1023 19.8296 17.5151L19.7651 17.5796C19.3567 17.9904 19.1266 18.5457 19.125 19.125C19.125 19.6946 19.2997 20.2406 19.6309 20.7034L21.0697 22.7179C21.1045 22.7664 21.1502 22.806 21.2033 22.8333C21.2563 22.8606 21.3151 22.8748 21.3748 22.8748C21.4345 22.8748 21.4933 22.8606 21.5463 22.8333C21.5994 22.806 21.6452 22.7664 21.6799 22.7179L23.1188 20.7034C23.4491 20.2435 23.6263 19.6912 23.625 19.125C23.6234 18.5457 23.3933 17.9904 22.9849 17.5796ZM22.5086 20.2676L21.375 21.8546L20.241 20.2676C20.0022 19.9346 19.8741 19.5348 19.875 19.125C19.875 18.747 20.0284 18.3773 20.2954 18.1099L20.3599 18.0454C20.631 17.7742 20.9918 17.625 21.375 17.625C21.7582 17.625 22.119 17.7742 22.3901 18.0454L22.4546 18.1099C22.7228 18.3798 22.8739 18.7445 22.875 19.125C22.875 19.5375 22.7486 19.932 22.5086 20.2676ZM3.75 13.125H4.5V13.875H3.75V13.125ZM3.75 14.625H4.5V15.375H3.75V14.625ZM3.75 16.125H4.5V16.875H3.75V16.125ZM5.25 16.125H6V16.875H5.25V16.125ZM6.75 16.125H7.5V16.875H6.75V16.125ZM8.25 16.125H9V16.875H8.25V16.125ZM9.75 16.125H10.5V16.875H9.75V16.125ZM11.25 16.125H12V16.875H11.25V16.125ZM13.5 16.125H14.25V16.875H13.5V16.125ZM15 16.125H15.75V16.875H15V16.125ZM15 17.625H15.75V18.375H15V17.625ZM15 19.125H15.75V19.875H15V19.125ZM15 20.625H15.75V21.375H15V20.625ZM15 22.125H15.75V22.875H15V22.125ZM16.5 22.125H17.25V22.875H16.5V22.125ZM18 22.125H18.75V22.875H18V22.125ZM19.5 22.125H20.25V22.875H19.5V22.125Z" fill="#777777"/>
<path d="M22.5 6.375C22.5 4.30725 20.8177 2.625 18.75 2.625C16.9391 2.625 15.4241 3.91537 15.0758 5.625H13.125V2.625C13.125 1.38412 12.1159 0.375 10.875 0.375H2.625C1.38412 0.375 0.375 1.38412 0.375 2.625V21.375C0.375 22.6159 1.38412 23.625 2.625 23.625H10.875C12.1159 23.625 13.125 22.6159 13.125 21.375V14.625H17.25C17.3495 14.625 17.4448 14.5855 17.5152 14.5152C17.5855 14.4448 17.625 14.3495 17.625 14.25V9.95212C17.989 10.0667 18.3684 10.125 18.75 10.125C20.8177 10.125 22.5 8.44275 22.5 6.375ZM12 6.375H13.5V8.84475L13.0151 8.35987C12.9803 8.32502 12.939 8.29737 12.8935 8.2785C12.848 8.25964 12.7992 8.24992 12.75 8.24992C12.7008 8.24992 12.652 8.25964 12.6065 8.2785C12.561 8.29737 12.5197 8.32502 12.4849 8.35987L12 8.84475V6.375ZM2.625 1.125H10.875C11.7023 1.125 12.375 1.79775 12.375 2.625V3.375H1.125V2.625C1.125 1.79775 1.79775 1.125 2.625 1.125ZM10.875 22.875H2.625C1.79775 22.875 1.125 22.2022 1.125 21.375V19.125H12.375V21.375C12.375 22.2022 11.7023 22.875 10.875 22.875ZM12.375 18.375H1.125V4.125H12.375V5.625H8.25C8.15054 5.625 8.05516 5.66451 7.98483 5.73484C7.91451 5.80516 7.875 5.90054 7.875 6V14.25C7.875 14.3495 7.91451 14.4448 7.98483 14.5152C8.05516 14.5855 8.15054 14.625 8.25 14.625H12.375V18.375ZM8.625 13.875V13.125H16.875V13.875H8.625ZM16.875 12.375H8.625V6.375H11.25V9.75C11.25 9.82416 11.272 9.89664 11.3132 9.9583C11.3544 10.02 11.413 10.068 11.4815 10.0964C11.55 10.1248 11.6254 10.1322 11.6981 10.1177C11.7709 10.1033 11.8377 10.0676 11.8901 10.0151L12.75 9.15525L13.6099 10.0151C13.6623 10.0676 13.7291 10.1033 13.8019 10.1177C13.8746 10.1322 13.95 10.1248 14.0185 10.0964C14.087 10.068 14.1456 10.02 14.1868 9.9583C14.228 9.89664 14.25 9.82416 14.25 9.75V6.375H15C15 7.75912 15.756 8.96812 16.875 9.61762V12.375ZM18.75 9.375C17.0959 9.375 15.75 8.02912 15.75 6.375C15.75 4.72088 17.0959 3.375 18.75 3.375C20.4041 3.375 21.75 4.72088 21.75 6.375C21.75 8.02912 20.4041 9.375 18.75 9.375Z" fill="#777777"/>
<path d="M18 6.96974L17.5151 6.48486L16.9849 7.01511L17.7349 7.76511C17.7696 7.80006 17.8109 7.82779 17.8564 7.84671C17.9019 7.86564 17.9507 7.87538 18 7.87538C18.0493 7.87538 18.0981 7.86564 18.1436 7.84671C18.1891 7.82779 18.2304 7.80006 18.2651 7.76511L20.5151 5.51511L19.9849 4.98486L18 6.96974Z" fill="#777777"/>
</svg>
