<svg width="24" height="22" viewBox="0 0 24 22" fill="none" xmlns="http://www.w3.org/2000/svg">
<path d="M5.37078 15.7351H2.90853C2.80807 15.7351 2.71172 15.7751 2.64068 15.8461C2.56964 15.9171 2.52974 16.0135 2.52974 16.1139V16.7769C2.52974 16.8266 2.53953 16.8759 2.55857 16.9218C2.57761 16.9678 2.60551 17.0095 2.64068 17.0447C2.67586 17.0799 2.71762 17.1078 2.76357 17.1268C2.80953 17.1459 2.85879 17.1556 2.90853 17.1556H5.37078M5.37078 7.21191H2.62442C2.57468 7.21191 2.52542 7.22171 2.47946 7.24075C2.43351 7.25978 2.39175 7.28769 2.35657 7.32286C2.3214 7.35804 2.2935 7.39979 2.27446 7.44575C2.25542 7.49171 2.24563 7.54097 2.24563 7.59071V8.25362C2.24563 8.30336 2.25542 8.35262 2.27446 8.39858C2.2935 8.44453 2.3214 8.48629 2.35657 8.52147C2.39175 8.55664 2.43351 8.58454 2.47946 8.60358C2.52542 8.62262 2.57468 8.63241 2.62442 8.63241H5.37078M5.37078 10.053H1.77209M5.37078 11.947H1.77209M5.37078 13.8411H1.77209" stroke="#777777" stroke-width="0.703125" stroke-miterlimit="10" stroke-linecap="round" stroke-linejoin="round"/>
<path d="M0.351562 7.60422V18.5763C0.351562 19.0989 0.775781 19.5231 1.29844 19.5231H5.37094M0.351562 5.96359V3.42344C0.351562 2.90078 0.775781 2.47656 1.29844 2.47656H5.37094M18.6292 15.735H21.0915C21.1919 15.735 21.2883 15.7749 21.3593 15.8459C21.4303 15.917 21.4702 16.0133 21.4702 16.1138V16.7767C21.4702 16.8771 21.4303 16.9735 21.3593 17.0445C21.2883 17.1156 21.1919 17.1555 21.0915 17.1555H18.6292M9.63244 5.79119H14.3676M18.6292 7.21173H21.3756C21.476 7.21173 21.5724 7.25164 21.6434 7.32268C21.7144 7.39372 21.7544 7.49007 21.7544 7.59053V8.25344C21.7544 8.3539 21.7144 8.45025 21.6434 8.52129C21.5724 8.59233 21.476 8.63223 21.3756 8.63223H18.6292M16.2616 10.5263H10.5795M9.15891 10.5263H7.73836M16.2616 12.4204H10.5795M9.15891 12.4204H7.73836M16.2616 14.3144H10.5795M9.15891 14.3144H7.73836M16.2616 16.2085H10.5795M22.2279 10.0528H18.6292M22.2279 11.9469H18.6292M22.2279 13.8409H18.6292M9.15891 16.2085H7.73836M12.8207 3.61305L12 2.47661L11.1793 3.61305L9.63244 2.95009L10.106 5.79119H13.894L14.3676 2.95009L12.8207 3.61305ZM6.79134 8.25348V7.59058C6.79134 7.49012 6.83125 7.39377 6.90229 7.32273C6.97333 7.25169 7.06968 7.21178 7.17014 7.21178H16.8298C16.9303 7.21178 17.0266 7.25169 17.0977 7.32273C17.1687 7.39377 17.2086 7.49012 17.2086 7.59058V8.25348C17.2086 8.35395 17.1687 8.4503 17.0977 8.52134C17.0266 8.59237 16.9303 8.63228 16.8298 8.63228H7.17014C7.06968 8.63228 6.97333 8.59237 6.90229 8.52134C6.83125 8.4503 6.79134 8.35395 6.79134 8.25348ZM9.15891 19.1443V18.4814C9.15891 18.3809 9.19881 18.2846 9.26985 18.2135C9.34089 18.1425 9.43724 18.1026 9.5377 18.1026H14.4622C14.5627 18.1026 14.6591 18.1425 14.7301 18.2135C14.8011 18.2846 14.841 18.3809 14.841 18.4814V19.1443C14.841 19.194 14.8312 19.2433 14.8122 19.2892C14.7932 19.3352 14.7653 19.377 14.7301 19.4121C14.6949 19.4473 14.6532 19.4752 14.6072 19.4942C14.5612 19.5133 14.512 19.5231 14.4622 19.5231H9.53775C9.488 19.5231 9.43874 19.5133 9.39278 19.4943C9.34681 19.4752 9.30505 19.4473 9.26987 19.4121C9.23469 19.377 9.20678 19.3352 9.18774 19.2893C9.1687 19.2433 9.15891 19.194 9.15891 19.1443Z" stroke="#777777" stroke-width="0.703125" stroke-miterlimit="10" stroke-linecap="round" stroke-linejoin="round"/>
<path d="M9.41857 0.58252H17.6822C18.2053 0.58252 18.629 1.00674 18.629 1.52986V20.4702C18.629 20.9933 18.2053 21.4175 17.6822 21.4175H6.31779C5.79466 21.4175 5.37091 20.9933 5.37091 20.4702V1.52986C5.37091 1.00674 5.79466 0.58252 6.31779 0.58252H7.77794M23.6484 16.3302V18.5764C23.6484 19.0991 23.2242 19.5233 22.7015 19.5233H18.629M18.629 2.47674H22.7015C23.2242 2.47674 23.6484 2.90096 23.6484 3.42361V14.6895" stroke="#777777" stroke-width="0.703125" stroke-miterlimit="10" stroke-linecap="round" stroke-linejoin="round"/>
</svg>
