<svg width="15" height="17" viewBox="0 0 15 17" fill="none" xmlns="http://www.w3.org/2000/svg">
<g id="Encapsulated Group" clip-path="url(#clip0_332_3433)">
<g id="Group">
<path id="Vector" d="M13.4997 3.16667H11.433C11.2783 2.41428 10.8689 1.73823 10.2738 1.25248C9.67879 0.766727 8.93448 0.50097 8.16634 0.5L6.83301 0.5C6.06487 0.50097 5.32055 0.766727 4.72551 1.25248C4.13046 1.73823 3.72107 2.41428 3.56634 3.16667H1.49967C1.32286 3.16667 1.15329 3.2369 1.02827 3.36193C0.903246 3.48695 0.833008 3.65652 0.833008 3.83333C0.833008 4.01014 0.903246 4.17971 1.02827 4.30474C1.15329 4.42976 1.32286 4.5 1.49967 4.5H2.16634V13.1667C2.1674 14.0504 2.51893 14.8976 3.14382 15.5225C3.76871 16.1474 4.61594 16.4989 5.49967 16.5H9.49967C10.3834 16.4989 11.2306 16.1474 11.8555 15.5225C12.4804 14.8976 12.8319 14.0504 12.833 13.1667V4.5H13.4997C13.6765 4.5 13.8461 4.42976 13.9711 4.30474C14.0961 4.17971 14.1663 4.01014 14.1663 3.83333C14.1663 3.65652 14.0961 3.48695 13.9711 3.36193C13.8461 3.2369 13.6765 3.16667 13.4997 3.16667ZM6.83301 1.83333H8.16634C8.57986 1.83384 8.98309 1.96225 9.32075 2.20096C9.65841 2.43967 9.91395 2.77699 10.0523 3.16667H4.94701C5.0854 2.77699 5.34094 2.43967 5.6786 2.20096C6.01626 1.96225 6.41949 1.83384 6.83301 1.83333ZM11.4997 13.1667C11.4997 13.6971 11.289 14.2058 10.9139 14.5809C10.5388 14.956 10.0301 15.1667 9.49967 15.1667H5.49967C4.96924 15.1667 4.46053 14.956 4.08546 14.5809C3.71039 14.2058 3.49967 13.6971 3.49967 13.1667V4.5H11.4997V13.1667Z" fill="#DC3545"/>
<path id="Vector_2" d="M6.16569 12.5C6.3425 12.5 6.51207 12.4297 6.63709 12.3047C6.76212 12.1797 6.83236 12.0101 6.83236 11.8333V7.83329C6.83236 7.65648 6.76212 7.48691 6.63709 7.36189C6.51207 7.23686 6.3425 7.16663 6.16569 7.16663C5.98888 7.16663 5.81931 7.23686 5.69429 7.36189C5.56926 7.48691 5.49902 7.65648 5.49902 7.83329V11.8333C5.49902 12.0101 5.56926 12.1797 5.69429 12.3047C5.81931 12.4297 5.98888 12.5 6.16569 12.5ZM8.83236 12.5C9.00917 12.5 9.17874 12.4297 9.30376 12.3047C9.42879 12.1797 9.49902 12.0101 9.49902 11.8333V7.83329C9.49902 7.65648 9.42879 7.48691 9.30376 7.36189C9.17874 7.23686 9.00917 7.16663 8.83236 7.16663C8.65555 7.16663 8.48598 7.23686 8.36095 7.36189C8.23593 7.48691 8.16569 7.65648 8.16569 7.83329V11.8333C8.16569 12.0101 8.23593 12.1797 8.36095 12.3047C8.48598 12.4297 8.65555 12.5 8.83236 12.5Z" fill="#DC3545"/>
</g>
</g>
<defs>
<clipPath id="clip0_332_3433">
<rect width="13.3333" height="16" fill="white" transform="translate(0.833008 0.5)"/>
</clipPath>
</defs>
</svg>
