<svg width="24" height="25" viewBox="0 0 24 25" fill="none" xmlns="http://www.w3.org/2000/svg">
<path d="M22.5938 13.1269H22.125V9.84562C22.125 8.55206 21.2167 7.46737 20.0045 7.194L17.871 3.49866C17.5583 2.95711 17.0535 2.56969 16.4494 2.40783C16.0229 2.29359 15.5831 2.30198 15.1707 2.42648L13.6193 0.875063C12.7064 -0.0377343 11.2212 -0.0378281 10.3083 0.875063L4.05661 7.12688H2.71875C1.21964 7.12688 0 8.34652 0 9.84562V21.4706C0 22.9697 1.21964 24.1894 2.71875 24.1894H8.95312C9.21197 24.1894 9.42188 23.9795 9.42188 23.7206C9.42188 23.4618 9.21197 23.2519 8.95312 23.2519H2.71875C1.73658 23.2519 0.9375 22.4528 0.9375 21.4706V9.84562C0.9375 8.86345 1.73658 8.06438 2.71875 8.06438H19.4062C20.3884 8.06438 21.1875 8.86345 21.1875 9.84562V13.1269H17.7188C16.323 13.1269 15.1875 14.2624 15.1875 15.6581C15.1875 17.0538 16.323 18.1894 17.7188 18.1894H21.1875V21.4706C21.1875 22.4528 20.3884 23.2519 19.4062 23.2519H13.1719C12.913 23.2519 12.7031 23.4618 12.7031 23.7206C12.7031 23.9795 12.913 24.1894 13.1719 24.1894H19.4062C20.9054 24.1894 22.125 22.9697 22.125 21.4706V18.1894H22.5938C23.3692 18.1894 24 17.5585 24 16.7831V14.5331C24 13.7578 23.3692 13.1269 22.5938 13.1269ZM16.2067 3.31341C16.5689 3.41044 16.8716 3.6427 17.0591 3.96741L18.8832 7.12688H8.77936L15.1416 3.45361C15.4663 3.2662 15.8445 3.21633 16.2067 3.31341ZM10.9713 1.53802C11.2364 1.27289 11.5889 1.12688 11.9638 1.12688C12.3388 1.12688 12.6913 1.27289 12.9564 1.53802L14.2844 2.86603L6.90441 7.12688H5.38247L10.9713 1.53802ZM23.0625 16.7831C23.0625 17.0416 22.8522 17.2519 22.5938 17.2519H17.7188C16.8399 17.2519 16.125 16.5369 16.125 15.6581C16.125 14.7793 16.8399 14.0644 17.7188 14.0644H22.5938C22.8522 14.0644 23.0625 14.2747 23.0625 14.5331V16.7831Z" fill="#614b79"/>
</svg>