<svg width="8" height="8" viewBox="0 0 8 8" fill="none" xmlns="http://www.w3.org/2000/svg">
<g id="Group">
<g id="02 User">
<path id="Vector" d="M0.390702 8.00013C0.313432 8.00014 0.237894 7.97724 0.173642 7.93432C0.10939 7.8914 0.0593109 7.83039 0.0297391 7.759C0.000167332 7.68761 -0.00756854 7.60906 0.00750998 7.53327C0.0225885 7.45749 0.059804 7.38788 0.114449 7.33325L7.33327 0.114428C7.40654 0.0411609 7.50591 0 7.60952 0C7.71314 0 7.81251 0.0411609 7.88577 0.114428C7.95904 0.187694 8.0002 0.287065 8.0002 0.39068C8.0002 0.494295 7.95904 0.593666 7.88577 0.666933L0.666954 7.88575C0.63071 7.92207 0.587647 7.95087 0.540239 7.9705C0.492831 7.99013 0.442012 8.0002 0.390702 8.00013Z" fill="white"/>
<path id="Vector_2" d="M7.6095 8.00001C7.55819 8.00008 7.50737 7.99001 7.45996 7.97038C7.41255 7.95075 7.36949 7.92195 7.33325 7.88563L0.114428 0.666811C0.0411608 0.593544 0 0.494173 0 0.390558C0 0.286943 0.0411608 0.187572 0.114428 0.114306C0.187694 0.0410388 0.287065 -0.00012207 0.39068 -0.00012207C0.494295 -0.00012207 0.593666 0.0410388 0.666933 0.114306L7.88575 7.33313C7.9404 7.38776 7.97761 7.45737 7.99269 7.53315C8.00777 7.60893 8.00003 7.68749 7.97046 7.75888C7.94089 7.83026 7.89081 7.89128 7.82656 7.9342C7.76231 7.97712 7.68677 8.00002 7.6095 8.00001Z" fill="white"/>
</g>
</g>
</svg>
